<?xml version="1.0" standalone="no"?>
<!DOCTYPE svg PUBLIC "-//W3C//DTD SVG 20010904//EN"
 "http://www.w3.org/TR/2001/REC-SVG-20010904/DTD/svg10.dtd">
<svg version="1.0" xmlns="http://www.w3.org/2000/svg"
 width="1806.000000pt" height="1065.000000pt" viewBox="0 0 1806.000000 1065.000000"
 preserveAspectRatio="xMidYMid meet">
<metadata>
Created by potrace 1.15, written by Peter Selinger 2001-2017
</metadata>
<g transform="translate(0.000000,1065.000000) scale(0.100000,-0.100000)"
fill="#000000" stroke="none">
<path d="M1378 6342 c11 -7 11 -10 -2 -15 -9 -4 -16 -18 -16 -32 0 -14 -5 -25
-11 -25 -7 0 -8 -13 -4 -39 7 -44 -9 -92 -50 -145 l-26 -34 22 -37 22 -37 -47
7 c-43 7 -46 6 -46 -15 0 -24 40 -67 88 -92 20 -11 32 -25 32 -38 0 -24 -13
-26 -31 -3 -18 21 -87 52 -116 53 -49 0 -31 -34 109 -201 21 -25 38 -52 38
-60 -1 -8 -7 -3 -15 11 l-15 25 4 -24 c1 -14 11 -28 22 -32 15 -6 16 -8 3 -8
-15 -1 -57 39 -121 117 -28 33 -81 51 -94 30 -4 -6 6 -37 21 -69 16 -32 26
-62 22 -65 -3 -3 -19 3 -35 15 -17 12 -34 21 -38 21 -5 0 8 -11 29 -25 20 -14
42 -23 49 -19 7 4 8 3 4 -4 -4 -7 -2 -12 4 -12 14 0 6 28 -27 93 -13 27 -23
53 -21 58 2 5 20 -29 41 -77 21 -47 36 -88 34 -91 -6 -6 -84 33 -92 47 -3 5
-13 10 -21 10 -12 0 -14 -9 -9 -37 l5 -38 -15 40 c-14 39 -14 39 -8 6 3 -19
20 -55 38 -80 86 -121 85 -175 -1 -90 -23 23 -46 39 -51 36 -15 -10 -14 -66 3
-100 9 -17 37 -52 63 -76 30 -29 39 -41 25 -37 -55 17 -158 34 -172 29 -11 -5
-13 -3 -7 8 7 12 6 12 -9 -1 -39 -31 8 -150 59 -150 19 0 24 -6 28 -32 4 -32
4 -32 5 5 2 35 0 37 -28 37 -24 0 -33 7 -50 40 -11 21 -19 52 -19 67 1 24 2
23 8 -9 11 -53 36 -86 68 -90 28 -3 28 -4 28 -76 0 -64 3 -76 23 -92 12 -10
28 -20 35 -23 6 -2 9 -7 6 -11 -13 -14 -79 61 -80 90 -1 23 -3 24 -6 7 -6 -31
10 -56 59 -95 23 -18 39 -27 35 -20 -15 23 8 12 26 -13 l18 -25 -34 0 c-31 0
-60 13 -182 78 -22 13 -47 19 -58 16 -15 -5 -18 -3 -12 7 4 8 -2 4 -15 -7 -19
-19 -20 -25 -10 -45 17 -31 140 -192 140 -182 0 4 -32 50 -70 101 -72 96 -77
106 -60 117 5 3 7 0 4 -8 -3 -9 22 -50 59 -100 60 -78 97 -136 97 -153 0 -10
-56 3 -107 26 -24 11 -42 24 -38 30 3 6 0 7 -9 4 -9 -3 -16 -10 -16 -16 0 -5
-6 -6 -12 -2 -7 4 -4 -2 6 -14 11 -12 24 -22 29 -22 6 0 2 7 -9 15 -18 14 -17
15 8 4 15 -7 25 -15 23 -19 -3 -4 2 -13 10 -20 20 -17 19 -28 -11 -83 -32 -61
-28 -92 16 -128 28 -23 53 -31 132 -43 54 -8 102 -17 108 -21 5 -3 10 -1 10 4
0 6 -2 11 -5 11 -3 0 -51 7 -107 15 -160 24 -200 68 -143 160 29 48 30 62 8
87 -18 20 -4 25 15 6 18 -18 15 -43 -15 -96 -50 -90 -18 -123 145 -148 53 -8
100 -18 105 -23 5 -5 4 -18 -3 -31 -9 -17 -17 -21 -38 -16 -68 16 -112 19
-112 6 0 -7 8 -19 18 -26 11 -9 12 -13 4 -14 -33 -1 -89 36 -162 105 -78 74
-144 115 -161 98 -5 -5 -6 -33 -2 -63 5 -47 12 -60 44 -91 22 -20 39 -41 39
-47 0 -7 23 -28 50 -48 31 -22 52 -46 56 -62 4 -15 21 -43 39 -62 18 -19 35
-47 39 -61 3 -16 26 -42 56 -65 27 -21 48 -40 45 -42 -2 -3 -25 1 -51 8 -63
18 -172 91 -272 184 -45 42 -87 76 -92 76 -24 0 -5 -56 65 -201 44 -90 82
-155 92 -157 8 -2 25 -15 37 -27 13 -16 60 -37 132 -60 186 -59 191 -81 20
-79 -117 2 -187 12 -295 45 -91 27 -94 27 -86 -21 6 -34 3 -43 -20 -64 -27
-26 -92 -52 -102 -43 -3 3 9 30 26 60 17 30 31 67 31 82 0 17 11 37 28 53 30
29 52 63 52 83 0 8 -16 10 -61 5 -33 -4 -68 -9 -77 -12 -9 -3 -5 2 10 10 24
14 68 73 68 91 0 4 -31 5 -69 3 l-69 -4 35 39 c41 46 69 105 55 119 -6 6 -25
2 -51 -11 -50 -26 -52 -16 -11 51 46 75 42 81 -35 47 -25 -11 -49 -18 -52 -15
-4 3 -1 6 6 6 7 0 10 4 7 8 -3 5 8 24 23 43 15 19 33 44 40 57 15 29 -4 30
-59 2 -49 -25 -78 -27 -60 -5 8 10 21 13 33 9 13 -4 17 -2 13 5 -5 7 2 11 18
11 14 0 26 4 26 10 0 5 8 7 18 3 9 -3 1 6 -18 21 -38 29 -38 28 -25 70 7 24 4
33 -15 48 -18 15 -25 16 -32 6 -6 -9 -7 -5 -3 10 9 33 -24 172 -41 172 -10 0
-14 -13 -14 -42 0 -25 -11 -66 -25 -96 -27 -59 -31 -92 -14 -124 10 -19 9 -20
-7 -13 -78 32 -90 7 -28 -56 53 -54 52 -56 -21 -34 -32 10 -51 12 -53 5 -2 -5
-8 -7 -14 -4 -6 4 -6 -2 1 -14 6 -12 17 -24 24 -28 8 -5 7 -2 -2 9 -8 10 -12
20 -9 23 6 5 48 -48 68 -85 l12 -24 -35 21 c-62 39 -72 22 -37 -57 11 -24 18
-46 15 -49 -3 -3 -21 2 -40 11 -33 16 -35 16 -35 -1 0 -9 14 -39 30 -67 30
-50 38 -85 20 -85 -5 0 -25 8 -45 17 -19 9 -38 14 -41 10 -4 -4 18 -34 49 -66
32 -33 57 -64 57 -70 0 -15 -27 -13 -75 4 -22 8 -53 15 -68 15 -24 0 -27 -3
-22 -21 6 -16 4 -20 -6 -14 -8 5 -1 -6 15 -23 15 -17 26 -34 23 -39 -3 -4 12
-42 34 -83 21 -41 38 -72 39 -67 0 4 -16 38 -35 76 -19 38 -31 71 -28 75 4 3
-4 18 -18 34 l-24 27 28 -24 c15 -14 26 -30 24 -35 -2 -6 13 -46 34 -88 22
-43 39 -82 39 -88 0 -17 -28 -11 -80 15 -27 14 -52 25 -55 25 -13 0 -3 -85 13
-108 30 -43 32 -49 17 -49 -8 0 -12 4 -9 9 3 4 -2 18 -10 30 -9 12 -16 18 -16
12 0 -5 6 -16 12 -22 10 -10 10 -15 -1 -22 -11 -6 -6 -11 20 -19 l34 -11 -33
5 -33 5 2 -91 2 -90 38 -19 c21 -11 44 -20 51 -20 7 0 -9 11 -37 24 -27 14
-46 25 -42 25 4 1 22 -6 40 -15 17 -9 54 -19 81 -23 49 -6 49 -6 31 -25 -16
-16 -29 -18 -93 -13 l-73 6 3 -125 c2 -96 6 -124 17 -124 8 0 11 6 7 15 -17
41 -15 46 4 13 12 -23 28 -38 39 -38 10 0 24 -7 31 -15 16 -19 2 -19 -43 0
-20 8 -41 15 -47 15 -6 0 -10 -31 -10 -78 0 -69 2 -79 23 -92 39 -26 51 -28
76 -13 20 13 25 13 32 2 15 -24 10 -38 -16 -45 -26 -7 -68 -2 -98 11 -16 7
-17 -12 -17 -322 0 -243 3 -332 12 -341 9 -9 9 -12 0 -12 -9 0 -12 -249 -12
-1090 l0 -1090 9030 0 9030 0 0 2184 c0 1882 -2 2185 -14 2189 -8 3 -20 -2
-28 -11 -10 -12 -10 -14 0 -8 14 8 27 -17 18 -33 -5 -7 -15 -6 -31 1 -28 13
-41 6 -29 -14 5 -7 7 -22 6 -33 -2 -17 -1 -17 7 -5 9 13 11 13 11 -2 0 -9 6
-18 12 -21 10 -4 10 -7 0 -18 -10 -11 -18 -11 -48 0 -19 7 -38 11 -40 8 -3 -3
9 -9 25 -15 17 -6 31 -13 31 -16 0 -3 -12 -1 -26 4 -34 13 -34 13 -34 -15 0
-13 8 -29 18 -34 9 -6 12 -11 6 -11 -15 0 -30 19 -37 45 -4 19 -5 18 -6 -2 0
-12 4 -25 10 -29 6 -3 8 -17 4 -33 -6 -25 -6 -25 9 -6 8 11 18 17 22 12 4 -4
2 -7 -4 -7 -24 0 -11 -20 28 -42 50 -29 52 -43 4 -23 -40 16 -80 20 -88 7 -3
-5 2 -21 9 -36 14 -26 14 -28 -3 -21 -43 18 -53 14 -13 -4 24 -12 46 -19 49
-16 3 3 0 5 -6 5 -7 0 -11 3 -10 8 0 4 -2 15 -7 25 -4 10 -5 21 -1 24 3 4 6
-1 6 -10 0 -10 5 -17 10 -17 6 0 10 -6 10 -14 0 -8 7 -16 15 -20 8 -3 15 -13
15 -21 0 -9 5 -13 10 -10 6 3 10 1 10 -4 0 -6 6 -11 14 -11 8 0 18 -4 21 -10
9 -14 -32 2 -97 39 -61 35 -104 38 -104 8 0 -18 1 -18 14 0 13 17 14 16 7 -4
-5 -18 -2 -23 12 -24 10 0 13 -3 7 -5 -6 -3 -9 -15 -7 -29 4 -20 2 -23 -18
-19 -22 4 -22 4 -4 -5 30 -15 33 -13 38 17 l4 27 2 -27 c0 -18 7 -28 16 -28 8
0 15 -5 15 -10 0 -6 10 -15 23 -20 20 -8 20 -9 2 -9 -11 0 -40 8 -64 19 -24
11 -47 20 -51 20 -8 0 8 -111 17 -120 3 -3 3 11 -1 30 -4 25 -3 31 4 20 5 -8
10 -22 10 -31 0 -9 12 -21 27 -28 l28 -13 -24 -19 c-23 -19 -24 -19 -56 1 -43
27 -58 26 -49 -2 4 -13 11 -26 16 -29 6 -4 6 -9 -1 -13 -6 -4 -11 -2 -11 4 0
6 -3 9 -7 7 -5 -3 -9 8 -10 24 -3 40 18 46 64 19 21 -12 31 -15 25 -7 -7 8
-26 20 -42 27 -38 16 -64 -2 -55 -37 5 -20 2 -23 -23 -23 -40 0 -42 -6 -27
-55 7 -24 10 -47 6 -50 -3 -4 2 -11 12 -16 9 -6 17 -19 17 -31 0 -17 4 -19 26
-14 22 6 25 4 20 -9 -3 -9 1 -26 9 -39 8 -12 12 -26 9 -29 -4 -4 -2 -13 4 -20
7 -7 13 -24 15 -38 3 -18 9 -23 26 -21 11 2 21 -2 21 -8 0 -6 -5 -8 -12 -4 -7
4 -8 3 -4 -4 4 -6 13 -9 21 -5 8 3 15 0 15 -6 0 -6 -5 -11 -11 -11 -15 0 -131
83 -149 107 -9 11 -4 9 11 -5 15 -13 33 -22 40 -20 8 2 13 -3 12 -10 -2 -6 2
-12 7 -12 13 0 13 17 0 25 -6 4 -10 15 -8 24 4 25 -21 68 -43 74 -11 3 -19 14
-19 26 0 12 -4 21 -9 21 -5 0 -7 -10 -4 -22 4 -19 3 -20 -6 -8 -9 12 -10 9 -7
-14 3 -16 8 -31 12 -35 4 -3 4 2 1 11 -10 30 10 29 41 -1 22 -20 29 -34 25
-49 -4 -17 -9 -19 -22 -12 -10 5 -23 16 -31 24 -7 9 -18 16 -24 16 -7 0 -12
10 -12 23 0 46 -16 97 -31 97 -8 0 -12 -4 -9 -8 2 -4 1 -14 -5 -22 -7 -13 -9
-13 -10 0 -1 19 -18 -18 -18 -40 0 -9 3 -8 8 4 7 19 8 19 14 -3 4 -18 -1 -26
-25 -39 -17 -10 -45 -29 -62 -43 -54 -45 -161 -115 -217 -142 -53 -25 -151
-47 -119 -27 8 5 29 10 45 10 20 0 26 3 17 9 -10 6 -9 10 7 14 12 3 19 1 15
-4 -8 -13 7 -11 36 6 l25 14 -30 1 c-22 0 -26 3 -15 9 8 6 18 7 24 4 5 -4 7 1
3 11 -4 10 -7 22 -7 27 0 5 -29 8 -64 6 -40 -1 -70 3 -77 10 -9 9 -7 11 10 6
13 -3 29 1 40 11 10 9 36 17 57 18 37 1 104 34 119 58 3 6 12 7 18 3 7 -4 5 1
-2 11 -14 17 -15 17 -23 -3 -4 -12 -18 -25 -32 -31 -13 -5 -27 -13 -30 -18 -3
-5 -24 -10 -47 -10 -23 -1 -47 -6 -52 -11 -13 -13 -81 -15 -73 -2 3 4 17 6 31
3 14 -2 31 1 39 7 7 6 32 12 54 14 23 1 47 8 54 15 7 7 18 12 25 12 8 0 18 11
23 24 7 18 14 23 29 19 16 -4 21 -1 21 16 0 16 6 21 24 21 30 0 75 37 80 65 3
11 7 28 11 38 11 26 -35 22 -98 -8 -47 -22 -162 -54 -195 -55 -10 0 -10 4 0
21 11 17 10 22 -2 32 -8 7 -15 19 -15 27 0 8 -4 15 -10 16 -5 0 -22 4 -38 8
-22 7 -25 11 -16 22 6 8 17 14 23 14 6 0 22 16 36 36 14 19 35 39 48 44 12 5
22 16 22 25 0 8 5 15 10 15 6 0 10 7 10 15 0 8 9 15 20 15 11 0 21 7 21 15 1
8 3 20 4 25 1 6 3 15 4 20 0 6 9 10 19 10 16 -1 16 -1 -1 -11 -9 -6 -15 -14
-12 -19 9 -14 -13 -50 -30 -50 -8 0 -15 -5 -15 -10 0 -16 38 7 50 30 6 11 8
24 5 29 -3 5 0 11 7 13 11 4 15 13 20 53 4 28 -29 22 -94 -16 -28 -17 -76 -36
-106 -44 -66 -18 -72 -18 -72 -5 0 5 7 7 15 4 11 -5 13 -2 9 10 -5 12 0 16 21
16 14 0 24 3 22 8 -8 13 10 47 24 47 8 0 15 11 15 24 1 14 15 35 34 51 24 20
31 32 27 51 -4 23 -4 23 -6 -4 0 -16 -8 -30 -18 -34 -28 -11 -53 -46 -47 -68
5 -18 4 -18 -6 -2 -9 14 -7 23 10 44 20 26 20 28 3 35 -11 5 -6 6 14 2 29 -5
32 -3 35 23 2 20 9 28 23 28 14 0 20 7 21 23 1 19 1 19 -3 2 -2 -11 -8 -18
-13 -15 -4 3 -6 15 -2 27 4 17 2 20 -14 15 -122 -39 -208 -57 -192 -41 7 6 31
12 63 14 l20 1 -20 9 c-17 7 -17 9 -2 9 9 1 17 6 17 11 0 6 6 10 14 10 8 0 16
3 19 8 2 4 2 1 0 -6 -1 -7 2 -10 8 -6 6 3 9 17 6 30 -2 13 -1 25 3 26 4 2 11
13 14 26 10 31 -6 28 -75 -14 -42 -25 -75 -37 -116 -41 -38 -4 -54 -3 -50 5 4
5 27 10 50 10 43 -1 56 4 145 53 43 24 43 24 59 4 8 -11 13 -14 11 -6 -10 35
-35 36 -88 3 -51 -32 -76 -41 -65 -22 3 6 -1 7 -10 3 -14 -5 -14 -8 -3 -15 9
-7 8 -8 -6 -4 -10 4 -25 1 -32 -5 -9 -7 -14 -7 -14 -1 0 5 13 15 29 22 16 6
32 18 35 26 3 8 13 14 22 14 10 0 14 5 10 16 -3 8 -2 13 2 10 4 -2 14 -1 22 5
13 7 13 9 1 9 -9 0 -7 6 7 19 12 10 22 29 23 42 l1 24 8 -25 c8 -24 8 -24 9
-2 1 31 -25 39 -63 18 -41 -22 -96 -37 -96 -26 0 5 10 10 22 12 14 2 24 11 26
23 2 11 9 25 16 30 15 12 29 75 17 75 -5 0 -37 -14 -71 -31 -34 -16 -67 -28
-73 -26 -7 3 0 8 15 12 16 4 25 11 22 16 -3 5 2 6 11 3 11 -5 14 -2 9 10 -4
10 0 18 10 22 9 3 16 12 16 20 0 8 5 14 10 14 6 0 10 8 11 18 0 11 2 12 6 4 3
-7 -1 -20 -8 -30 -12 -15 -11 -15 3 -2 9 8 19 25 23 37 6 20 3 23 -24 23 -17
0 -56 -11 -87 -25 -67 -29 -64 -29 -64 -10 0 9 17 20 45 27 25 7 45 16 45 20
0 4 6 8 14 8 21 0 31 21 15 31 -19 12 -66 11 -74 -1 -9 -15 -35 -12 -29 3 8
23 90 21 114 -3 11 -11 20 -16 20 -11 0 18 -44 41 -80 42 -19 1 -28 3 -19 6
16 4 33 42 24 51 -2 2 -15 5 -28 6 -23 1 -24 4 -22 64 2 47 -2 67 -14 79 -9 9
-15 18 -14 20 5 9 -11 43 -21 43 -6 0 -4 5 4 11 13 9 13 10 0 6 -8 -2 -14 -13
-12 -24 1 -11 -2 -30 -8 -44 -9 -22 -10 -21 -6 11 l5 35 -17 -38 c-10 -21 -21
-36 -25 -33 -4 3 -4 3 -1 -1 3 -5 11 -8 17 -8 7 0 11 -9 10 -20 -1 -11 3 -22
8 -26 6 -3 4 -10 -4 -17 -11 -10 -13 -6 -12 18 1 16 -2 27 -6 24 -4 -2 -5 -23
-3 -47 5 -41 4 -42 -26 -43 -33 -1 -29 11 5 19 19 4 19 5 -1 6 -31 2 -59 -33
-44 -56 9 -16 10 -15 5 7 -5 22 -5 23 6 6 6 -10 20 -27 30 -37 11 -11 19 -26
19 -34 0 -14 -3 -14 -25 1 -27 17 -85 11 -85 -9 0 -7 18 -23 40 -37 22 -13 40
-28 40 -32 0 -4 11 -8 25 -8 15 0 25 -6 25 -14 0 -25 -16 -26 -41 -3 -49 46
-129 66 -129 31 0 -8 5 -12 10 -9 6 3 10 -1 10 -10 0 -10 -5 -13 -12 -9 -8 5
-7 1 2 -10 16 -20 58 -40 77 -37 24 3 22 -17 -2 -22 -14 -2 -28 0 -31 4 -3 5
-15 14 -27 20 -15 7 -12 2 8 -14 16 -14 33 -23 37 -20 5 2 8 -1 8 -6 0 -6 7
-11 15 -11 8 0 15 -7 15 -15 0 -9 7 -18 15 -21 8 -4 12 -10 9 -15 -3 -5 4 -9
15 -9 11 0 23 -5 27 -11 4 -8 -1 -9 -17 -4 -46 14 -78 35 -84 55 -6 20 -51 60
-67 60 -6 0 -8 -10 -5 -23 4 -12 1 -29 -4 -37 -9 -13 -10 -12 -5 2 3 10 1 28
-3 40 -8 19 -9 17 -7 -14 1 -20 5 -40 9 -44 12 -12 8 -26 -5 -18 -9 5 -9 2 1
-9 7 -9 19 -17 25 -17 7 0 7 3 1 8 -12 9 -16 42 -5 42 4 0 11 -12 14 -26 4
-15 14 -33 22 -41 8 -9 12 -18 9 -22 -4 -3 -12 1 -18 9 -15 19 -98 60 -109 54
-27 -17 11 -95 42 -87 18 5 25 -5 21 -30 -1 -4 10 -12 24 -17 31 -12 33 -20 3
-14 -13 2 -17 2 -11 -2 12 -5 19 -44 8 -44 -2 0 -29 12 -59 27 -55 27 -76 27
-60 1 5 -7 7 -22 6 -33 -2 -17 -1 -17 7 -5 9 13 11 13 11 -2 0 -10 5 -18 10
-18 6 0 10 -5 10 -11 0 -5 -5 -7 -12 -3 -7 4 -8 3 -4 -4 4 -6 13 -9 21 -5 8 3
15 0 15 -6 0 -6 6 -11 14 -11 8 0 17 -7 20 -16 3 -8 9 -13 13 -11 5 3 17 1 28
-4 20 -8 20 -8 0 -8 -19 -1 -137 29 -177 44 -14 6 -18 2 -18 -19 0 -15 6 -29
14 -32 8 -3 11 -15 8 -30 -4 -24 -3 -25 34 -20 23 3 29 3 16 -2 l-23 -7 20
-22 c12 -12 21 -32 21 -45 0 -13 7 -32 15 -42 8 -10 12 -23 9 -27 -3 -5 3 -9
13 -9 10 0 27 -7 37 -15 58 -44 -70 -20 -159 30 -68 38 -111 43 -111 12 0 -18
1 -18 14 0 13 17 14 16 7 -5 -4 -13 -2 -22 5 -22 20 0 37 -24 32 -47 -3 -18 0
-23 17 -23 12 0 21 -6 21 -15 0 -8 8 -15 18 -16 12 0 13 -2 3 -6 -8 -3 -19 1
-25 9 -6 8 -19 17 -28 21 -11 4 -18 17 -18 31 0 14 -4 27 -8 30 -5 3 -6 -8 -4
-24 3 -19 17 -39 39 -56 20 -15 32 -32 29 -40 -3 -8 1 -14 9 -14 8 0 13 6 11
13 -1 6 -1 9 1 5 3 -5 13 -8 23 -8 20 0 36 -17 26 -27 -9 -10 -98 17 -124 38
-28 22 -17 26 12 4 11 -8 25 -15 30 -15 6 0 -4 9 -22 20 -18 11 -36 18 -40 16
-4 -2 -6 -23 -4 -45 3 -31 8 -41 22 -41 22 0 33 -25 17 -38 -22 -16 -42 -24
-23 -8 11 9 15 16 9 16 -5 0 -18 -9 -27 -19 -17 -19 -17 -21 11 -56 29 -37 92
-75 125 -75 11 0 16 5 13 10 -4 6 -11 8 -16 4 -25 -15 -137 67 -139 101 0 5
14 -7 31 -28 32 -38 91 -73 108 -63 5 4 12 2 16 -4 4 -6 11 -8 16 -5 5 4 17 1
26 -4 15 -9 13 -11 -12 -11 l-30 -2 27 -9 c20 -8 34 -6 57 5 38 20 41 20 41
-3 0 -28 -27 -33 -88 -16 -61 18 -73 14 -47 -15 27 -30 -2 -26 -45 5 -19 14
-38 25 -44 25 -5 0 -30 17 -55 38 -76 62 -141 82 -141 41 0 -13 -4 -18 -12
-13 -10 6 -10 5 0 -8 7 -9 10 -27 5 -48 -4 -21 -2 -31 4 -27 5 3 9 22 8 42 0
19 3 35 8 35 5 0 7 -13 4 -29 -5 -24 -2 -31 13 -36 11 -4 20 -10 20 -15 0 -4
9 -10 20 -13 14 -4 20 -14 20 -36 0 -23 6 -33 27 -43 15 -7 33 -24 40 -38 7
-14 21 -32 31 -40 10 -9 21 -22 25 -30 3 -10 6 -7 6 8 1 13 -5 22 -14 22 -9 0
-21 12 -28 27 -16 37 -51 70 -68 65 -11 -3 -11 -1 1 7 21 15 27 14 33 -9 3
-11 12 -20 20 -20 8 0 17 -13 21 -30 4 -21 11 -30 26 -30 16 0 20 -7 20 -31 0
-16 4 -28 9 -24 5 3 12 1 15 -4 10 -16 -37 -5 -79 19 -22 12 -58 36 -80 53
-64 49 -65 50 -65 44 0 -22 188 -138 230 -143 14 -2 39 -10 56 -19 l29 -15
-26 0 c-61 0 -299 148 -299 185 0 8 -7 15 -16 15 -8 0 -13 4 -10 8 3 4 0 26
-5 48 -6 21 -11 45 -11 52 -2 22 -28 13 -28 -10 0 -17 -3 -19 -9 -10 -6 10
-10 8 -14 -10 -9 -32 -7 -47 2 -24 7 19 8 19 13 -1 4 -15 -3 -28 -23 -46 -16
-14 -29 -21 -29 -17 0 5 10 16 22 24 12 9 18 16 12 16 -13 0 -44 -33 -44 -46
0 -5 -9 -15 -20 -22 -11 -7 -20 -17 -20 -22 0 -6 9 -1 20 10 24 24 56 26 64 4
5 -14 4 -15 -8 -5 -15 12 -56 7 -56 -7 0 -4 18 -18 40 -31 22 -14 38 -27 35
-29 -2 -2 -16 5 -31 17 -35 27 -68 28 -59 2 3 -11 2 -22 -4 -25 -11 -7 2 -70
21 -94 12 -15 11 -15 -14 1 -15 9 -32 17 -37 17 -14 0 0 -33 26 -64 13 -14 18
-26 12 -26 -5 0 -7 -5 -3 -11 3 -6 -8 -3 -26 6 -34 17 -49 10 -50 -22 0 -7 -6
-13 -12 -14 -7 0 -2 -5 11 -10 14 -5 30 -8 35 -6 6 3 18 -3 26 -11 13 -14 12
-15 -2 -9 -37 14 -88 19 -88 9 0 -6 4 -14 10 -17 6 -3 10 -15 10 -27 0 -14 5
-18 16 -14 8 3 12 2 9 -3 -3 -5 -1 -12 5 -16 5 -3 10 -14 10 -24 0 -10 7 -24
15 -31 24 -20 18 -29 -12 -20 -41 12 -110 50 -92 50 8 0 24 -7 35 -15 23 -17
38 -19 28 -3 -4 6 -3 8 2 5 6 -3 10 3 11 13 1 11 -2 22 -7 25 -4 2 -7 -3 -6
-13 1 -12 -5 -16 -19 -14 -53 9 -58 7 -60 -18 -1 -14 2 -34 7 -45 8 -18 8 -18
4 3 -2 12 0 20 5 16 5 -3 9 -14 9 -25 0 -10 4 -19 8 -19 5 0 22 -11 38 -25
l29 -26 -30 7 c-16 4 -34 11 -40 15 -16 15 -25 10 -25 -16 0 -16 6 -25 16 -25
8 0 12 -5 9 -10 -4 -6 -14 -9 -22 -8 -9 2 -18 -4 -20 -12 -3 -11 -2 -12 4 -2
7 9 12 7 22 -11 15 -28 55 -46 109 -50 50 -2 59 -19 12 -19 -3 -1 -18 2 -34 6
-24 6 -27 4 -22 -9 7 -19 3 -17 -75 37 -50 35 -61 39 -95 32 -22 -3 -57 -15
-78 -25 -46 -22 -46 -22 -46 -10 0 5 10 12 23 16 12 4 24 8 27 9 3 1 14 6 25
12 11 6 41 10 67 9 30 0 42 2 33 8 -9 4 -29 6 -45 3 -17 -2 -30 0 -30 6 0 6
-17 9 -39 6 -29 -2 -37 0 -33 10 3 10 15 12 36 8 18 -3 26 -2 18 2 -7 5 -10
15 -7 23 3 9 -3 24 -15 34 -12 11 -20 31 -20 50 0 18 -7 46 -16 61 -13 23 -15
25 -11 7 3 -13 1 -23 -4 -23 -5 0 -9 11 -9 25 0 16 -6 25 -15 25 -8 0 -15 -9
-15 -21 0 -12 -4 -17 -11 -13 -10 6 -29 -1 -81 -27 -22 -11 -28 -11 -28 0 0 5
12 12 28 16 36 8 66 31 57 44 -8 15 -48 14 -63 -1 -9 -9 -12 -9 -12 -1 0 16
21 28 45 25 15 -2 21 3 21 18 0 20 -1 20 -14 3 -13 -17 -14 -16 -7 5 6 21 -2
26 -35 24 -7 -1 -4 88 4 95 3 3 6 -15 6 -40 0 -26 3 -47 8 -47 16 0 -1 86 -24
122 -14 21 -27 38 -30 38 -3 0 -2 -5 2 -12 5 -8 2 -9 -10 -5 -11 4 -19 1 -22
-11 -3 -9 -10 -25 -15 -34 -12 -23 -11 -37 1 -18 5 8 10 11 11 5 0 -5 2 -20 5
-32 2 -12 -1 -25 -6 -28 -6 -4 -8 -11 -4 -16 3 -6 0 -10 -7 -8 -29 3 -40 -2
-37 -18 2 -10 -6 -20 -22 -25 -20 -6 -17 -7 12 -4 24 3 38 0 41 -8 4 -10 -5
-12 -39 -8 -30 3 -44 1 -44 -7 0 -7 -4 -10 -9 -7 -5 4 -8 -2 -7 -11 4 -23 -16
-45 -26 -29 -5 6 -8 7 -8 1 0 -14 56 -75 69 -75 20 0 11 15 -20 33 -18 10 -29
21 -25 25 4 3 10 2 14 -4 4 -5 23 -20 42 -32 23 -14 29 -22 18 -22 -25 0 -22
-11 9 -37 14 -13 23 -26 20 -30 -4 -3 -21 10 -39 29 -35 38 -72 61 -81 51 -3
-3 -3 -19 0 -36 4 -20 3 -28 -4 -24 -6 4 -14 0 -17 -9 -9 -25 -7 -54 5 -54 5
0 7 -4 4 -10 -3 -5 2 -10 12 -11 10 0 13 -3 6 -6 -14 -5 -18 -24 -5 -21 19 4
39 -15 35 -32 -5 -19 -6 -19 -44 0 -43 23 -70 27 -52 9 6 -6 9 -18 6 -27 -4
-10 -2 -13 5 -8 8 5 10 1 5 -10 -5 -13 -3 -15 7 -9 8 5 11 4 6 -3 -5 -8 -15
-8 -33 -1 -14 5 -28 8 -30 5 -2 -2 13 -10 33 -16 28 -10 39 -10 42 -2 2 8 9 7
19 -4 8 -8 13 -17 10 -20 -5 -5 -67 9 -104 23 -12 5 -14 1 -8 -18 4 -13 10
-26 14 -29 3 -3 6 -12 6 -20 0 -9 7 -14 19 -12 10 2 15 -1 12 -7 -4 -5 -2 -12
4 -16 5 -3 10 -17 10 -31 0 -13 5 -24 10 -24 6 0 10 -8 10 -17 0 -15 -2 -14
-15 3 -8 10 -15 26 -15 35 0 9 -7 23 -17 30 -15 13 -15 12 -5 -8 30 -58 33
-65 30 -68 -9 -10 -85 44 -107 75 -13 19 -20 26 -16 15 4 -11 9 -27 12 -35 5
-19 116 -75 135 -68 7 3 23 -1 33 -9 18 -14 16 -14 -25 -8 -70 12 -143 58
-159 100 -14 41 -23 44 -40 13 -11 -23 -11 -23 -6 2 5 22 5 23 -6 6 -8 -13 -9
-28 -2 -51 13 -41 -3 -73 -34 -70 -12 1 -24 -4 -27 -12 -3 -7 0 -13 7 -13 21
0 -54 -41 -86 -47 l-32 -5 32 31 c18 17 37 31 42 31 6 0 11 9 11 20 0 12 5 17
13 14 8 -3 14 1 14 8 0 7 3 23 7 35 9 27 -10 31 -40 8 -10 -8 -23 -15 -27 -15
-10 0 2 43 14 50 11 7 24 63 13 59 -5 -2 -34 -17 -64 -32 -40 -21 -48 -23 -30
-8 14 11 30 21 35 21 20 0 55 31 49 42 -5 7 -12 5 -21 -7 -7 -11 -13 -14 -13
-8 0 5 9 20 20 33 15 18 17 26 9 37 -7 7 -14 12 -16 9 -2 -2 -16 2 -30 9 -18
10 -32 11 -44 4 -25 -13 -33 -11 -20 5 8 9 24 13 44 10 18 -2 27 0 20 4 -6 4
-11 16 -10 27 2 16 -4 20 -28 19 -30 0 -31 1 -29 49 3 55 10 72 12 30 2 -39 7
-61 15 -69 3 -4 4 6 1 22 -3 16 -6 38 -7 49 0 11 -7 29 -15 40 -11 16 -13 16
-9 3 4 -10 2 -18 -3 -18 -6 0 -10 12 -10 26 0 31 -23 28 -28 -4 -2 -12 -7 -22
-12 -22 -4 0 -6 10 -4 23 4 20 4 20 -5 2 -4 -11 -6 -27 -2 -35 6 -14 6 -30 2
-70 0 -8 -12 -16 -26 -16 -14 -1 -22 2 -19 7 3 5 11 9 19 9 18 0 25 24 13 41
-8 11 -9 11 -5 -2 3 -10 -6 -25 -25 -39 -17 -12 -27 -28 -24 -36 3 -7 -3 -18
-12 -23 -9 -6 -12 -10 -7 -11 21 0 35 17 30 36 -3 10 1 7 8 -9 7 -15 16 -25
19 -22 3 3 8 -1 12 -10 4 -13 2 -14 -14 -5 -23 12 -70 3 -70 -14 0 -6 -5 -4
-11 4 -8 12 -10 12 -7 1 2 -8 14 -16 26 -18 13 -1 32 -12 44 -23 12 -11 28
-20 35 -20 7 0 13 -4 13 -10 0 -16 -15 -12 -40 10 -30 26 -68 36 -83 21 -16
-16 11 -65 38 -69 16 -3 14 2 -10 23 l-30 26 43 -27 c43 -27 53 -38 27 -28 -8
4 -15 1 -15 -5 0 -7 7 -14 15 -17 8 -4 15 -11 15 -16 0 -6 8 -17 18 -24 10 -8
12 -13 5 -14 -7 0 -21 9 -30 19 -10 10 -29 31 -42 45 -28 31 -45 34 -37 6 10
-36 16 -65 10 -52 -3 6 -10 9 -15 6 -6 -3 -5 -12 3 -22 10 -14 10 -15 -2 -4
-22 19 -42 15 -35 -8 4 -11 2 -20 -4 -20 -22 0 -11 41 14 50 24 9 35 43 16 54
-4 3 -6 -5 -4 -17 3 -16 -2 -25 -19 -32 -17 -7 -23 -19 -24 -41 -1 -18 -4 -39
-7 -47 -3 -9 1 -18 9 -21 11 -4 13 0 8 21 -5 16 -3 24 3 20 17 -11 10 -52 -9
-49 -22 3 -31 -28 -13 -48 19 -21 20 -36 1 -21 -16 14 -46 4 -46 -15 0 -8 -5
-14 -10 -14 -14 0 5 37 22 42 6 2 12 14 13 26 1 11 -2 19 -7 16 -4 -3 -8 -10
-8 -16 0 -6 -7 -19 -15 -28 -9 -10 -18 -27 -20 -39 -3 -11 -7 -30 -9 -40 -3
-15 -1 -18 11 -14 12 5 12 7 1 14 -19 12 0 11 23 -1 28 -15 24 -33 -6 -26 -18
5 -25 2 -25 -8 0 -8 -8 -17 -17 -21 -15 -5 -16 -4 -5 6 6 7 12 16 12 20 0 11
-60 -8 -80 -26 -9 -8 -20 -15 -24 -15 -4 0 6 11 22 25 17 14 39 25 51 25 12 0
21 5 21 11 0 5 -4 7 -10 4 -6 -3 -10 -1 -10 6 0 8 -11 10 -35 6 -21 -3 -33 -2
-30 4 4 5 17 9 30 9 18 0 23 4 18 16 -5 13 -7 13 -14 2 -7 -10 -9 -9 -9 5 0
10 -8 17 -20 17 -11 0 -20 3 -20 8 0 13 17 33 26 31 21 -4 28 2 14 11 -13 8
-12 10 3 10 11 0 17 8 17 24 0 14 8 27 18 31 14 5 15 4 5 -6 -7 -7 -13 -20
-12 -28 0 -14 1 -14 6 -1 3 8 12 22 19 30 9 11 10 20 3 30 -9 12 -10 12 -5 -3
3 -11 2 -16 -4 -12 -6 3 -10 12 -10 20 0 8 -8 11 -22 8 -22 -4 -22 -3 2 11 28
17 19 22 -11 5 -11 -5 -17 -14 -14 -20 7 -10 -65 -46 -114 -55 l-31 -6 35 37
c20 20 35 42 34 48 -2 20 13 57 23 57 5 0 4 -8 -2 -19 -5 -11 -10 -28 -10 -38
0 -11 -9 -29 -20 -41 -13 -14 -16 -22 -8 -22 15 0 38 45 38 72 0 10 4 18 8 18
4 0 9 11 10 23 1 13 8 37 16 52 9 16 14 31 12 33 -2 2 -28 -4 -57 -12 -58 -18
-70 -15 -45 9 9 9 16 12 16 6 0 -6 7 -11 16 -11 14 0 15 2 3 17 -8 10 -9 14
-2 10 7 -5 12 -1 11 10 0 10 3 26 7 36 10 25 -13 22 -55 -7 -19 -13 -55 -26
-80 -29 -25 -3 -37 -4 -27 -1 9 3 17 10 17 14 0 5 13 7 28 4 19 -4 32 -1 41
10 12 14 11 16 -5 16 -18 1 -18 1 -2 11 10 5 21 9 24 8 9 -1 54 72 54 86 -1 6
-10 -7 -21 -27 -11 -21 -24 -38 -30 -38 -6 0 -3 7 5 16 9 8 16 19 16 24 0 5 3
16 6 25 6 15 4 15 -31 1 -21 -9 -39 -15 -41 -13 -2 2 3 14 10 28 18 36 26 69
15 69 -5 0 -32 -12 -60 -26 l-51 -25 37 36 c20 20 39 34 42 31 4 -3 1 -6 -5
-6 -7 0 -12 -4 -12 -10 0 -6 10 -5 25 2 14 6 23 13 20 16 -3 3 0 11 7 19 8 10
6 19 -12 38 -13 14 -26 23 -29 20 -2 -3 5 -12 17 -21 12 -8 22 -21 22 -27 0
-7 -5 -4 -11 6 -15 25 -29 24 -97 -12 -13 -7 -27 -10 -30 -7 -7 8 -4 10 43 27
22 8 40 21 40 29 0 19 -42 25 -61 10 -9 -8 -14 -9 -14 -2 0 16 22 27 45 24 15
-2 21 3 21 18 0 20 -1 20 -14 3 -13 -17 -14 -16 -7 5 6 21 -2 26 -35 24 -3 0
-4 27 -3 60 1 33 -2 69 -8 79 -12 24 -39 13 -39 -16 0 -16 -6 -22 -17 -21 -14
1 -18 -6 -17 -30 1 -23 -5 -34 -27 -47 -16 -9 -28 -24 -28 -34 1 -17 2 -17 6
0 2 9 18 24 33 32 26 13 29 19 23 48 -3 17 -3 29 1 26 12 -11 16 -58 6 -64 -6
-4 -8 -11 -4 -16 3 -6 0 -10 -7 -8 -29 3 -40 -2 -37 -18 2 -10 -6 -20 -22 -25
-20 -6 -17 -7 12 -4 24 3 38 0 41 -8 4 -10 -5 -12 -39 -8 -30 3 -44 1 -44 -7
0 -7 -4 -10 -9 -7 -5 4 -8 -2 -7 -11 2 -10 -3 -24 -11 -31 -7 -8 -10 -18 -7
-24 4 -7 9 -6 14 2 4 7 9 8 11 3 2 -5 20 -18 39 -31 23 -14 29 -22 18 -22 -22
0 -24 -18 -3 -26 8 -4 12 -10 9 -15 -3 -5 2 -9 10 -9 9 0 16 -4 16 -10 0 -17
-9 -11 -50 30 -44 45 -62 51 -57 18 2 -13 2 -17 0 -10 -11 30 -42 -10 -43 -55
0 -18 -4 -33 -10 -33 -5 0 -10 -6 -10 -13 0 -28 -177 -139 -245 -153 l-30 -6
29 16 c15 9 38 18 50 20 32 6 108 52 152 91 l39 36 -55 -39 c-79 -57 -152 -92
-116 -57 8 8 19 15 24 15 15 0 39 33 51 72 9 26 17 35 27 31 10 -4 17 2 21 16
3 12 13 21 25 21 10 0 16 5 13 10 -3 6 1 13 10 16 12 5 15 14 11 30 -4 14 -2
24 4 24 5 0 10 9 10 20 0 36 -41 24 -115 -34 -52 -40 -105 -70 -112 -62 -4 3
-1 6 5 6 6 0 9 7 6 15 -4 8 -1 15 6 15 6 0 8 -4 5 -10 -3 -6 1 -7 10 -3 13 5
14 7 3 14 -7 5 -22 9 -33 9 -12 1 -4 6 19 15 44 16 50 20 69 58 8 16 18 24 21
19 3 -5 -4 -23 -15 -38 l-21 -29 27 29 c25 27 25 29 9 47 -9 11 -22 19 -28 19
-6 0 -4 -5 4 -10 9 -6 10 -10 3 -10 -6 0 -14 4 -17 8 -6 11 9 35 20 30 5 -1
10 12 12 30 4 36 -3 40 -28 17 -22 -20 -97 -34 -86 -16 4 7 17 9 29 6 16 -5
18 -4 8 3 -11 8 -7 16 18 39 17 17 31 37 31 46 0 16 37 43 52 39 4 -1 5 5 1
14 -5 13 -8 13 -15 2 -7 -9 -8 -6 -5 10 8 35 -16 37 -68 6 -26 -15 -57 -28
-70 -29 -24 -3 -24 -5 11 98 4 9 13 17 20 17 8 0 14 9 14 19 0 11 4 21 9 23 4
1 12 14 16 27 7 22 5 23 -16 17 -84 -25 -132 -36 -137 -32 -3 3 2 6 11 6 9 0
17 4 17 8 0 4 15 8 34 9 18 1 46 8 62 18 16 9 20 13 9 9 -11 -4 -29 -8 -41 -9
-11 -1 -25 -5 -32 -9 -7 -4 -12 -3 -12 2 0 12 29 24 41 17 5 -4 6 1 3 9 -3 8
0 24 6 36 18 33 3 37 -42 12 -38 -23 -40 -23 -53 -5 -12 16 -11 19 6 25 10 4
19 16 19 27 0 13 5 18 13 15 18 -7 50 31 44 53 -4 15 -5 15 -6 -3 0 -12 -9
-28 -18 -35 -15 -11 -16 -11 -5 1 13 16 16 50 4 50 -15 0 -62 -25 -62 -32 0
-5 -5 -8 -10 -8 -6 0 -7 7 -1 18 28 54 44 112 31 112 -14 0 -59 -41 -65 -59
-6 -20 -61 -48 -72 -37 -3 3 1 6 10 6 9 0 17 5 17 10 0 6 7 10 16 10 8 0 12 5
9 10 -3 6 1 13 9 16 21 8 20 31 -1 37 -17 4 -17 5 0 6 9 0 17 5 17 10 0 10 39
27 54 22 5 -1 3 5 -4 14 -11 13 -10 15 4 9 11 -4 16 -1 16 10 0 18 -54 23 -65
6 -3 -5 -16 -10 -28 -10 -18 1 -16 5 15 23 21 12 38 28 38 35 0 6 1 15 3 19 1
4 -11 10 -28 13 -24 4 -29 10 -27 28 3 17 -2 22 -21 22 -32 0 -47 34 -34 77 7
23 7 39 -1 55 -11 22 -11 21 -7 -7 5 -29 5 -29 -9 5 l-14 35 -13 -32 c-8 -18
-17 -33 -22 -33 -4 0 -3 9 3 19 17 33 11 38 -8 6 -10 -16 -19 -48 -20 -69 -2
-22 -5 -43 -8 -48 -3 -4 0 -8 5 -8 10 0 16 53 11 90 -1 8 1 12 5 8 4 -4 8 -31
9 -60 l2 -54 -30 0 c-25 1 -31 -3 -29 -19 1 -10 -7 -25 -18 -33 -28 -20 -44
-52 -25 -52 10 0 13 6 10 18 -5 16 -5 16 5 0 6 -9 27 -22 46 -28 19 -6 35 -16
35 -20 0 -5 8 -7 18 -3 12 4 14 3 6 -6 -7 -8 -21 -6 -52 9 -57 28 -92 27 -92
-2 0 -19 2 -20 10 -8 8 12 10 10 10 -8 0 -16 4 -21 13 -16 7 5 6 0 -3 -11 -14
-16 -13 -17 8 -11 17 6 22 3 22 -9 0 -9 3 -14 8 -12 4 3 16 -4 27 -15 15 -15
5 -13 -42 11 -34 17 -65 31 -68 31 -7 0 6 -54 15 -60 4 -3 10 -15 14 -27 4
-12 15 -24 24 -26 14 -4 13 -5 -3 -6 -11 0 -29 5 -40 12 -53 36 -90 22 -67
-26 9 -19 10 -17 6 13 -4 28 -1 24 16 -20 11 -30 18 -45 16 -32 -2 12 0 22 5
22 5 0 9 -9 9 -20 0 -10 8 -23 18 -29 27 -16 -27 -8 -61 9 -24 12 -30 11 -43
-2 -14 -14 -14 -19 5 -54 11 -22 20 -35 21 -31 0 4 -7 22 -16 39 -21 40 -6 57
33 38 31 -16 37 -17 75 -19 15 0 33 -8 42 -16 8 -8 19 -15 25 -15 5 0 13 -5
17 -11 13 -21 -80 2 -127 32 -43 27 -69 36 -69 24 0 -4 7 -20 16 -37 19 -36 7
-56 -24 -39 -31 16 -41 13 -12 -4 30 -17 60 -19 60 -4 0 5 5 7 11 3 8 -4 7 -9
-2 -16 -10 -6 -7 -7 9 -3 12 4 22 2 22 -4 0 -5 8 -12 18 -15 9 -2 -1 -2 -23 1
-22 3 -55 12 -74 19 -18 8 -38 14 -43 14 -11 0 1 -44 13 -48 5 -2 9 -12 9 -23
0 -10 6 -19 13 -19 13 0 31 -35 41 -81 3 -15 21 -37 38 -49 l33 -22 -49 6
c-28 4 -69 19 -98 36 -57 35 -64 36 -71 10 -3 -13 1 -24 13 -30 11 -6 17 -20
16 -42 -1 -29 3 -33 27 -36 15 -2 27 -9 27 -18 0 -8 9 -14 20 -14 11 0 20 -7
20 -15 0 -9 7 -18 15 -21 8 -4 15 -13 15 -22 0 -11 -8 -5 -22 15 -13 18 -29
33 -37 33 -8 0 -6 -6 7 -17 12 -10 31 -29 42 -43 12 -14 19 -19 15 -12 -4 7 0
12 9 12 26 0 27 -18 1 -24 -14 -4 -25 -11 -25 -16 0 -16 41 -32 67 -25 18 4
24 2 21 -7 -5 -15 -60 -17 -97 -4 -21 7 -23 6 -18 -13 4 -17 2 -21 -11 -17 -9
3 -35 8 -57 12 -22 4 -60 18 -86 31 -26 12 -54 23 -63 23 -25 0 -19 -28 14
-60 30 -30 40 -47 18 -34 -6 4 -3 -4 8 -18 10 -15 21 -22 23 -16 2 6 -3 14
-10 19 -11 7 -10 9 4 9 11 0 17 -8 17 -21 0 -16 5 -20 20 -16 13 3 20 0 20 -8
0 -18 44 -39 118 -55 91 -21 76 -55 -18 -43 -27 4 -40 2 -40 -6 0 -7 -6 -9
-12 -6 -7 4 -2 -3 11 -14 13 -12 18 -21 13 -21 -18 0 -83 41 -156 97 -38 30
-76 53 -85 51 -8 -2 -21 -14 -27 -27 -14 -27 -103 -83 -121 -76 -7 2 -15 0
-18 -5 -12 -20 26 -9 87 23 44 24 62 38 60 50 -7 38 29 28 101 -25 85 -63 144
-99 173 -104 12 -2 35 -11 50 -20 l29 -16 -30 7 c-51 10 -128 52 -213 115 -44
33 -85 60 -91 60 -16 0 -14 -26 4 -43 8 -8 11 -17 8 -21 -3 -3 2 -8 11 -12 9
-3 13 -10 11 -15 -8 -12 25 -59 41 -59 8 0 14 -10 14 -26 0 -15 -4 -23 -11
-19 -6 4 -9 12 -7 19 2 6 -6 21 -19 33 -13 12 -23 18 -23 14 0 -5 7 -14 15
-21 8 -7 15 -17 15 -22 0 -5 10 -22 22 -36 12 -15 18 -19 15 -9 -4 9 -2 17 3
17 6 0 10 -7 10 -15 0 -8 15 -22 33 -31 17 -9 35 -22 39 -28 4 -6 30 -11 58
-10 71 1 67 -22 -5 -31 -61 -8 -126 -1 -187 21 -70 24 -130 13 -80 -15 30 -17
-6 -39 -75 -45 -64 -5 -73 0 -50 23 10 10 7 16 -13 32 -21 17 -22 19 -3 10 30
-15 37 -29 23 -46 -14 -16 -3 -20 18 -6 11 6 8 14 -11 37 l-25 28 27 33 c14
18 32 33 39 33 6 0 12 6 12 13 0 9 2 9 8 1 5 -8 13 -3 26 14 11 14 14 22 8 18
-6 -3 -13 -2 -17 4 -3 5 3 10 14 10 16 0 21 6 21 25 0 14 6 28 14 31 18 7 17
44 -1 44 -7 0 -37 -13 -66 -30 -28 -16 -72 -32 -97 -35 l-45 -7 33 22 c17 12
32 28 32 36 0 8 5 14 10 14 6 0 10 11 10 24 0 14 4 28 10 31 14 9 13 23 -2 28
-7 2 -1 2 15 0 22 -4 27 -1 27 16 0 11 4 23 10 26 14 9 12 45 -2 45 -7 0 -31
-7 -53 -15 -48 -17 -68 -19 -60 -5 3 6 20 10 36 10 17 0 28 4 24 10 -3 5 -13
7 -23 4 -10 -4 -13 -3 -6 3 6 4 16 17 22 28 11 19 12 19 9 -5 -2 -23 1 -25 31
-22 38 4 51 -17 32 -53 -7 -13 -10 -29 -7 -37 4 -9 6 -7 6 5 1 9 7 26 13 37
18 29 -1 55 -39 54 -27 -1 -30 1 -29 27 1 19 6 28 15 26 8 -1 16 5 18 13 4 13
3 13 -6 0 -7 -10 -11 -11 -11 -2 0 20 -32 14 -72 -13 -22 -15 -57 -27 -85 -30
l-48 -4 54 10 c44 9 51 13 37 21 -12 7 -22 6 -32 -3 -8 -6 -17 -9 -21 -5 -3 3
-2 6 3 6 6 0 19 8 30 18 19 18 57 36 61 30 4 -5 32 38 43 66 14 39 2 31 -14
-9 -8 -19 -21 -35 -28 -35 -10 0 -10 2 -1 8 14 9 36 63 28 70 -3 3 -21 -2 -40
-11 -45 -21 -43 -22 -37 8 2 14 8 25 12 25 9 0 23 50 17 57 -3 2 -30 -8 -61
-23 -31 -15 -60 -24 -63 -20 -3 3 -1 6 6 6 15 0 41 25 41 39 0 6 6 11 14 11 8
0 18 9 21 20 3 11 11 20 16 20 5 0 2 -11 -7 -25 -9 -14 -20 -25 -25 -25 -5 0
-9 -5 -9 -10 0 -6 13 -4 30 5 17 9 30 18 30 21 0 3 -4 2 -10 -1 -13 -8 -13 8
1 22 7 7 6 15 -5 26 -15 14 -20 14 -61 0 -25 -8 -47 -19 -51 -24 -8 -14 -24
-10 -24 6 0 8 8 15 18 15 9 0 35 9 56 21 22 11 35 15 30 7 -6 -10 -4 -10 9 1
18 14 22 22 10 19 -5 0 -16 2 -26 7 -10 4 -35 5 -55 2 l-37 -6 28 24 c28 25
36 55 15 55 -10 0 -10 2 -1 8 7 5 9 13 4 21 -7 11 -10 9 -16 -8 -3 -11 -11
-21 -18 -21 -8 0 -8 3 -1 10 6 6 10 34 8 63 -3 49 -2 50 5 12 8 -38 8 -38 10
-9 0 18 -6 45 -15 60 -13 23 -15 25 -11 7 3 -13 1 -23 -3 -23 -5 0 -10 10 -12
22 -5 32 -28 35 -28 4 0 -16 -6 -26 -15 -26 -8 0 -15 -5 -15 -11 0 -5 -6 -7
-12 -3 -10 5 -10 4 -1 -6 6 -7 9 -18 7 -25 -3 -7 -1 -16 4 -19 5 -3 8 6 6 19
-1 14 1 23 5 20 9 -5 8 -30 -2 -60 -5 -16 -16 -21 -40 -21 -26 0 -32 -3 -30
-19 1 -13 -9 -26 -29 -38 -17 -10 -28 -23 -25 -30 3 -8 -4 -19 -14 -25 -10 -7
-19 -17 -19 -22 0 -6 10 0 22 12 13 13 23 29 23 38 0 8 14 20 32 25 25 8 30
14 23 25 -6 8 -10 20 -10 25 1 6 6 1 12 -10 6 -11 16 -23 22 -27 7 -5 6 -8 -4
-8 -8 -1 -4 -6 9 -11 13 -5 21 -12 18 -15 -3 -3 -15 0 -27 6 -31 16 -69 5 -67
-20 1 -11 6 -19 12 -18 13 3 75 -34 75 -45 0 -4 5 -5 10 -2 6 3 10 1 10 -4 0
-16 -16 -13 -34 4 -23 24 -80 45 -95 36 -10 -7 -9 -13 5 -30 10 -11 22 -21 26
-21 5 0 17 -9 28 -20 17 -17 17 -20 4 -20 -11 0 -14 -5 -10 -16 3 -9 6 -18 6
-20 0 -3 5 -2 12 2 7 4 8 3 4 -4 -4 -7 -4 -12 1 -12 4 0 19 -9 33 -21 l25 -20
-37 18 c-21 9 -38 21 -38 26 0 5 -13 21 -30 37 l-29 27 25 -3 c14 -1 22 2 18
8 -3 5 -13 7 -21 4 -8 -3 -12 -2 -9 3 3 5 -2 15 -12 22 -15 13 -16 12 -4 -3 9
-11 10 -18 2 -23 -10 -6 -11 -66 0 -75 13 -13 38 -70 30 -70 -6 0 -10 4 -10 9
0 5 -8 11 -17 15 -10 3 -26 11 -35 18 -9 7 -20 10 -23 7 -8 -8 13 -62 28 -71
9 -6 9 -8 -1 -8 -7 0 -20 16 -28 35 -16 40 -28 48 -14 9 12 -30 38 -70 45 -67
9 3 45 -9 45 -16 0 -3 -6 -14 -13 -23 -12 -16 -15 -16 -43 3 -33 22 -64 25
-64 7 0 -9 -4 -8 -11 2 -9 13 -10 13 -6 0 2 -8 10 -14 18 -13 9 2 14 -7 15
-26 1 -26 -2 -28 -29 -27 -38 1 -56 -23 -40 -56 6 -13 14 -30 16 -38 4 -12 6
-11 6 3 1 9 -4 26 -11 36 -19 30 -3 53 34 49 30 -3 33 -1 31 22 -3 24 -2 24 9
5 6 -11 16 -24 22 -28 7 -6 4 -7 -6 -3 -10 3 -20 1 -23 -4 -4 -6 7 -10 24 -10
16 0 33 -5 36 -10 8 -14 -12 -12 -60 5 -22 8 -46 15 -52 15 -15 0 -17 -36 -3
-45 6 -3 10 -15 10 -26 0 -17 5 -20 28 -16 15 2 21 2 15 0 -16 -5 -17 -19 -3
-28 6 -3 10 -17 10 -31 0 -13 5 -24 10 -24 6 0 10 -6 10 -14 0 -8 15 -24 33
-36 l32 -22 -44 6 c-41 6 -190 76 -160 76 8 0 37 -14 64 -30 49 -29 92 -40 80
-20 -4 6 -11 8 -16 4 -5 -3 -34 9 -64 26 -31 18 -62 30 -69 27 -18 -7 -17 -54
0 -61 8 -3 14 -17 14 -31 0 -16 6 -25 15 -25 8 0 15 -5 15 -11 0 -5 -4 -7 -10
-4 -5 3 -17 2 -26 -3 -15 -8 -15 -10 0 -15 10 -4 15 -3 12 2 -3 4 8 8 24 9 16
0 29 -2 29 -6 -3 -20 3 -30 24 -37 19 -6 19 -8 4 -12 -9 -2 -37 5 -60 16 -24
12 -46 21 -48 21 -14 0 5 -59 20 -63 14 -4 14 -5 0 -6 -9 0 -22 -12 -29 -26
-13 -23 -12 -28 10 -48 21 -19 22 -19 7 -1 -23 28 -21 41 6 54 20 10 21 10 4
-4 -18 -14 -18 -16 -1 -41 17 -26 52 -47 85 -50 9 -1 37 -10 63 -20 57 -22 42
-40 -17 -19 -50 18 -50 18 -44 -6 3 -11 3 -20 0 -20 -11 0 -121 71 -133 86
-19 22 -82 46 -93 35 -5 -5 -4 -17 3 -31 6 -12 9 -27 7 -34 -6 -14 17 -38 46
-49 9 -3 17 -16 17 -27 0 -17 4 -20 20 -15 14 5 20 2 20 -9 0 -9 6 -16 14 -16
15 0 30 -39 30 -77 0 -25 11 -30 20 -10 3 6 4 3 3 -7 -2 -16 10 -24 53 -38 38
-13 44 -17 20 -13 -47 7 -123 48 -195 105 -34 26 -71 52 -83 59 -21 11 -22 10
-20 -23 2 -19 5 -33 7 -31 7 8 31 -24 30 -42 0 -16 -1 -16 -9 2 -6 13 -9 15
-9 5 0 -8 7 -24 16 -35 13 -16 15 -17 10 -2 -4 9 -2 17 3 17 6 0 10 -6 11 -12
3 -59 27 -100 61 -105 13 -2 25 -8 26 -13 2 -6 10 -10 17 -10 8 0 16 -4 19 -9
4 -5 -4 -7 -16 -5 -21 4 -21 4 -3 -4 11 -5 25 -7 31 -5 5 2 27 -4 49 -12 24
-11 50 -14 72 -10 25 4 33 2 33 -8 0 -34 -131 -30 -297 10 -77 18 -102 12 -67
-16 11 -9 19 -22 16 -29 -2 -6 3 -12 12 -12 9 0 16 -7 16 -15 0 -8 7 -15 15
-15 8 0 15 -4 15 -10 0 -5 11 -10 25 -10 14 0 25 -4 25 -10 0 -5 9 -10 20 -10
11 0 20 -4 20 -8 0 -22 -181 15 -196 40 -4 5 -1 15 5 21 6 6 11 18 10 27 0 9
-4 6 -9 -7 -5 -13 -15 -23 -22 -22 -10 0 -10 2 0 6 14 5 17 43 3 43 -6 0 -26
-9 -46 -21 -38 -23 -108 -43 -99 -28 3 5 15 9 27 9 12 0 42 12 66 25 24 14 49
24 55 23 12 -3 16 3 16 25 0 7 -3 8 -8 2 -8 -11 -85 -55 -96 -55 -4 0 -4 6 -1
13 4 6 -1 3 -11 -8 -15 -18 -16 -18 -10 -2 3 10 6 25 6 33 0 8 5 14 11 14 5 0
7 -6 3 -12 -5 -9 -2 -9 9 1 18 14 23 26 8 17 -5 -3 -11 1 -14 9 -4 9 -1 12 9
8 9 -3 14 2 14 16 0 12 4 21 10 21 5 0 7 -8 3 -17 -3 -12 0 -10 12 5 9 13 14
29 11 37 -4 12 -12 12 -53 0 -60 -18 -67 -19 -51 -1 7 8 16 12 20 10 4 -3 19
-2 33 2 17 4 23 9 15 14 -9 5 -9 13 -2 27 9 16 7 19 -10 20 -12 1 -33 -4 -49
-12 -23 -12 -28 -12 -32 -1 -3 8 1 17 9 20 9 3 13 10 10 15 -3 5 3 11 13 14
11 2 24 15 31 28 11 24 11 24 -10 -1 -21 -24 -21 -24 -10 -2 14 29 8 37 -18
23 -27 -14 -35 -14 -26 1 4 6 11 25 15 42 l8 31 -2 -31 c-2 -21 1 -30 8 -27
16 6 7 49 -14 65 -9 7 -13 9 -10 5 6 -7 -65 -87 -78 -87 -8 0 18 32 45 54 13
10 21 21 18 24 -3 2 -12 -1 -21 -8 -9 -7 -18 -11 -20 -8 -3 3 7 11 23 19 50
26 57 54 12 47 -19 -3 -27 -1 -21 5 16 16 56 4 54 -17 -1 -12 2 -15 9 -8 7 7
6 17 -4 31 -8 12 -18 18 -21 14 -4 -3 -7 -1 -7 6 0 9 -11 12 -34 9 -19 -2 -32
0 -30 4 3 4 16 8 29 8 18 0 22 4 18 21 -3 11 -16 27 -29 35 -14 10 -21 23 -19
35 2 11 0 17 -5 14 -4 -3 -7 -13 -5 -23 2 -9 4 -20 4 -23 1 -4 10 -9 21 -12
20 -5 29 -37 10 -37 -5 0 -7 7 -4 15 4 10 0 15 -15 15 -12 0 -22 6 -23 13 0 6
-2 19 -3 27 -1 8 2 22 6 31 4 8 3 22 -3 30 -8 11 -9 11 -4 -3 3 -10 1 -18 -4
-18 -6 0 -10 9 -10 20 0 11 -3 20 -8 20 -14 0 -34 -61 -30 -95 3 -28 1 -35
-13 -35 -10 0 -20 -8 -22 -18 -4 -16 -5 -16 -6 1 0 10 5 20 12 23 7 2 14 21
15 42 2 20 7 41 12 46 6 6 10 14 10 20 0 5 -7 1 -15 -10 -8 -10 -15 -31 -15
-45 0 -14 -7 -34 -15 -45 -21 -28 -19 -54 4 -54 11 0 22 -4 25 -8 3 -5 -8 -6
-25 -4 -46 7 -38 -25 11 -39 21 -7 37 -15 35 -20 -3 -4 -19 -1 -35 8 -36 17
-78 24 -85 13 -7 -12 6 -40 18 -40 7 0 7 4 -1 12 -7 7 -12 16 -12 21 0 4 11
-4 25 -19 14 -15 25 -31 25 -35 0 -12 -17 -11 -25 1 -10 16 -35 12 -42 -7 -4
-10 -15 -24 -25 -31 -10 -7 -18 -21 -17 -30 0 -12 3 -10 10 6 6 17 14 22 28
17 14 -4 18 -1 16 17 -1 13 0 15 2 6 2 -10 9 -18 14 -18 5 0 9 -7 9 -16 0 -10
-5 -14 -15 -10 -8 3 -21 9 -29 12 -9 3 -15 -4 -18 -20 -4 -17 -1 -23 9 -19 9
4 11 0 7 -11 -3 -9 -14 -16 -23 -17 -12 0 -11 -2 4 -8 14 -6 22 -4 27 8 6 14
7 14 7 -1 1 -10 7 -18 14 -18 7 0 22 -8 33 -18 11 -11 26 -22 34 -25 8 -4 1
-4 -16 -2 -16 3 -52 17 -79 30 -33 17 -52 22 -59 15 -7 -7 -6 -14 2 -22 17
-17 15 -28 -5 -28 -22 0 -14 -6 20 -14 l29 -7 -21 30 c-12 16 -21 33 -21 37 0
5 12 -9 27 -31 14 -22 31 -44 37 -48 6 -5 3 -6 -9 -2 -45 15 -75 17 -75 6 0
-13 20 -49 38 -69 6 -7 12 -22 12 -33 0 -10 5 -19 10 -19 6 0 10 -7 10 -15 0
-8 6 -15 14 -15 8 0 18 -4 21 -10 10 -16 -57 1 -101 26 -50 29 -54 29 -54 4 0
-11 5 -20 10 -20 6 0 10 -10 10 -22 -1 -19 -4 -16 -18 14 -17 36 -18 36 -31
17 -7 -12 -10 -24 -7 -27 3 -3 6 0 6 6 0 18 20 14 27 -5 10 -30 46 -64 53 -52
5 7 9 5 13 -5 5 -12 0 -16 -21 -16 -15 0 -34 -5 -42 -10 -10 -7 -1 -8 30 -4
25 4 47 8 49 10 1 1 15 -9 30 -24 23 -24 24 -29 11 -39 -13 -11 -13 -14 0 -23
8 -6 23 -8 33 -6 9 2 17 0 17 -6 0 -6 -16 -7 -42 -3 -57 10 -60 12 -47 38 11
20 9 19 -12 -3 -14 -14 -20 -28 -15 -32 6 -4 13 -5 17 -2 4 2 10 0 14 -6 7
-11 -9 -13 -42 -4 -24 7 -21 34 4 34 9 0 13 6 9 15 -5 15 10 20 43 15 13 -1
13 1 2 14 -18 21 -46 20 -133 -4 -40 -11 -97 -19 -128 -19 -53 2 -53 2 22 10
42 5 87 14 100 19 21 10 20 10 -6 5 -16 -4 -59 -8 -97 -11 -37 -2 -80 -9 -94
-14 -23 -9 -26 -8 -23 7 2 13 14 17 51 18 26 0 51 5 55 11 4 6 22 17 40 25 17
8 32 17 32 21 0 19 2 23 16 31 8 4 14 18 14 29 0 12 3 18 7 15 8 -9 45 52 38
63 -3 5 5 10 17 12 12 2 23 10 25 18 4 13 3 13 -6 0 -14 -20 -14 -7 1 25 24
52 -3 44 -108 -35 -67 -51 -119 -81 -164 -95 l-25 -8 28 27 c15 14 32 26 38
26 11 0 11 11 0 28 -5 8 -22 13 -42 11 -57 -3 -79 0 -79 14 0 8 24 18 63 26
85 17 117 32 118 56 1 17 2 17 6 2 2 -9 9 -17 15 -17 20 0 138 131 138 154 0
5 -13 -11 -30 -35 -16 -25 -40 -51 -54 -58 -13 -8 -27 -22 -29 -32 -3 -11 -11
-19 -19 -18 -10 0 -10 2 0 6 6 2 12 13 12 24 0 10 7 19 15 19 8 0 15 5 15 10
0 6 7 10 15 10 8 0 15 5 15 10 0 6 9 19 20 30 43 43 13 53 -60 19 -37 -18
-137 -47 -162 -49 -3 0 -4 9 -1 20 5 17 2 18 -28 10 -43 -13 -82 -13 -75 -1 4
5 0 12 -6 15 -7 3 -1 3 14 0 27 -6 68 10 68 26 0 5 -12 13 -26 16 -27 7 -21
21 11 27 22 4 116 87 99 87 -7 0 -14 -7 -18 -15 -3 -8 -10 -15 -17 -15 -6 0
-20 -10 -30 -23 l-20 -22 17 27 c9 16 23 28 30 28 8 0 14 7 14 15 0 9 9 15 23
15 13 0 31 8 40 18 19 20 23 52 7 52 -5 0 -7 -7 -4 -15 8 -19 -13 -45 -35 -44
-10 0 -8 4 8 10 17 7 22 15 18 30 -4 15 0 23 14 26 10 3 19 10 19 15 0 5 4 7
8 4 4 -2 9 5 9 17 2 15 0 18 -6 8 -7 -11 -9 -11 -13 0 -4 11 -23 5 -79 -24
-45 -22 -88 -37 -109 -37 -26 0 -31 3 -20 10 8 5 26 6 40 3 21 -5 23 -4 13 9
-10 11 -9 19 3 36 8 12 13 25 10 30 -2 4 3 16 11 27 16 20 16 20 9 0 -6 -16
-1 -14 23 9 17 17 31 37 30 45 0 10 -4 8 -9 -6 -9 -23 -34 -31 -44 -14 -4 5 4
7 16 3 18 -4 20 -2 16 16 -4 15 -2 22 8 22 8 0 14 10 14 26 0 19 -4 25 -15 20
-48 -18 -127 -37 -138 -33 -6 3 -2 6 11 6 13 1 20 5 17 11 -3 6 1 7 10 4 16
-7 110 24 101 33 -2 2 -14 -1 -26 -7 -17 -9 -25 -9 -34 1 -6 6 -6 10 -1 7 6
-3 20 9 32 28 13 21 16 31 7 27 -7 -2 -16 -14 -20 -25 -3 -11 -8 -17 -11 -15
-2 3 1 15 7 27 18 34 5 35 -52 2 -56 -32 -146 -54 -133 -33 4 7 12 10 18 8 6
-2 18 4 27 12 9 9 29 24 43 35 15 10 29 27 32 37 4 11 11 17 16 14 5 -4 9 -1
9 5 0 6 3 9 8 7 4 -3 7 8 7 24 0 33 -15 37 -55 14 -39 -22 -40 -19 -14 33 35
69 33 85 -9 58 -12 -8 -40 -22 -62 -32 l-39 -16 33 31 c33 31 47 39 36 21 -4
-6 1 -7 12 -3 30 10 34 14 27 25 -4 7 -9 6 -14 -2 -5 -9 -9 -9 -14 -1 -4 6 -2
11 3 11 6 0 11 8 12 18 0 14 2 13 9 -4 4 -12 16 -24 25 -28 13 -4 16 -13 11
-34 -5 -27 -5 -27 6 -3 11 20 9 26 -10 41 -12 10 -22 28 -22 39 0 28 -37 28
-90 1 -45 -23 -50 -24 -50 -9 0 5 4 8 9 5 5 -4 11 -1 13 4 2 6 10 12 18 13 8
2 22 7 30 12 8 5 28 9 45 8 21 0 23 1 8 4 -21 4 -28 14 -24 36 1 5 -7 11 -18
14 -11 3 -21 15 -23 27 -2 14 -10 21 -23 20 -18 0 -20 6 -18 53 1 35 -4 64
-15 83 -18 32 -32 39 -32 16 0 -19 -29 -48 -40 -41 -5 3 -5 -8 0 -23 9 -32 3
-46 -20 -55 -12 -4 -12 -6 2 -6 22 -1 32 17 30 53 -3 34 10 28 14 -7 3 -28
-15 -53 -41 -59 -14 -2 -19 -11 -18 -25 2 -17 -4 -23 -25 -26 -17 -3 -12 -4
12 -4 22 1 41 -3 43 -9 3 -8 -10 -10 -42 -7 -57 7 -61 -12 -7 -45 28 -17 31
-22 12 -17 -68 18 -77 17 -83 -4 -3 -12 0 -24 5 -28 6 -3 8 -1 4 5 -3 6 -2 13
4 17 5 3 10 -1 10 -9 0 -9 5 -16 11 -16 6 0 22 -9 36 -20 19 -15 21 -20 9 -20
-20 0 -21 -19 0 -27 8 -3 13 -11 11 -17 -3 -7 8 -18 25 -25 16 -7 27 -15 25
-18 -10 -9 -68 29 -78 51 -6 12 -23 30 -37 40 -15 10 -19 15 -10 12 10 -3 20
0 24 5 4 7 -3 9 -17 7 -15 -2 -23 -9 -21 -18 2 -8 5 -24 6 -35 2 -19 20 -68
32 -87 6 -10 -37 12 -46 23 -3 4 -16 9 -30 10 -20 3 -25 0 -26 -18 -1 -13 3
-23 8 -23 5 0 7 10 3 23 -5 19 -5 20 5 4 7 -10 9 -25 6 -33 -3 -9 -1 -12 4 -9
6 3 10 1 10 -5 0 -6 5 -8 10 -5 6 3 10 2 10 -4 0 -5 -5 -13 -10 -16 -6 -4 -7
-11 -4 -17 5 -8 1 -9 -9 -5 -40 16 -50 17 -24 2 26 -15 53 -12 42 5 -3 4 6 3
19 -3 19 -9 22 -15 14 -30 -5 -10 -12 -17 -16 -15 -4 2 -24 12 -44 23 -41 20
-59 15 -37 -11 8 -10 13 -26 11 -37 -3 -14 0 -17 10 -12 10 6 10 5 2 -4 -8 -9
-18 -9 -39 -1 -15 6 -30 9 -32 6 -8 -7 96 -38 107 -31 5 3 10 1 10 -4 0 -6 7
-11 17 -11 9 0 14 -3 10 -6 -3 -4 -37 3 -76 15 -38 11 -71 21 -74 21 -2 0 -3
-12 0 -27 3 -24 2 -25 -6 -8 -5 11 -10 14 -10 7 -1 -15 18 -49 43 -80 20 -22
48 -93 41 -100 -2 -2 -29 11 -61 28 -43 25 -61 31 -73 23 -14 -9 -27 -57 -12
-49 3 2 12 -2 19 -10 7 -8 9 -14 3 -14 -15 0 -1 -37 22 -57 22 -18 22 -18 5 3
-20 23 -23 40 -8 49 6 3 7 -1 4 -9 -6 -16 54 -86 74 -86 5 0 12 -6 15 -14 5
-13 0 -13 -40 -1 -25 8 -51 19 -57 26 -8 9 -6 9 11 0 27 -14 46 -14 38 0 -4 6
-10 8 -13 5 -3 -4 -16 1 -30 10 -13 9 -22 11 -18 6 3 -6 2 -12 -3 -14 -5 -1
-6 -18 -4 -36 4 -23 10 -32 19 -28 20 8 17 -21 -3 -33 -16 -8 -16 -12 -3 -36
17 -32 50 -50 107 -60 24 -4 45 -11 48 -15 3 -5 16 -5 30 0 27 10 33 -1 11
-19 -11 -9 -25 -10 -53 -2 -50 14 -56 14 -49 -4 3 -8 2 -15 -2 -15 -17 0 -88
42 -116 68 -17 16 -46 35 -63 42 -18 7 -33 19 -33 27 0 10 -6 12 -20 8 -19 -6
-19 -4 -8 19 15 34 6 41 -34 27 l-32 -11 34 35 c29 30 32 37 20 45 -9 6 -10
10 -3 10 22 0 25 -21 7 -43 -16 -20 -16 -20 6 1 25 23 25 23 5 40 -26 22 -49
71 -46 99 1 11 -1 23 -6 26 -12 8 -8 -45 5 -70 14 -25 16 -69 4 -77 -5 -3 -6
8 -4 25 2 17 -3 39 -12 54 -9 13 -16 36 -16 50 0 35 -14 31 -40 -10 -15 -24
-20 -44 -16 -61 7 -27 -11 -53 -32 -46 -20 6 -14 -14 14 -47 16 -20 20 -29 10
-25 -9 3 -16 9 -16 13 0 4 -12 6 -27 5 -16 0 -28 -6 -27 -12 2 -27 5 -32 15
-32 8 0 7 5 -1 15 -7 9 -11 17 -9 19 2 2 14 -9 27 -25 l23 -29 -30 6 c-26 5
-31 3 -32 -12 0 -18 -1 -18 -9 1 -6 14 -9 16 -9 4 -1 -17 38 -63 46 -55 3 3 2
11 -3 19 -5 7 1 2 13 -12 12 -13 24 -33 26 -43 4 -15 0 -14 -27 7 -45 34 -51
31 -22 -12 29 -42 28 -50 -4 -33 -12 6 -29 8 -38 4 -9 -4 -20 -6 -25 -6 -4 1
2 -16 13 -38 11 -21 20 -42 20 -45 0 -3 -14 -5 -32 -5 -40 0 -34 -6 15 -13 22
-3 37 -2 37 4 0 6 -5 7 -12 3 -7 -4 -8 -3 -4 4 4 6 0 25 -9 43 -9 17 -15 33
-13 35 2 2 16 -22 31 -52 l28 -56 -58 7 c-32 4 -60 9 -63 12 -8 7 -29 97 -30
128 -1 41 -12 56 -41 52 -18 -3 -25 -11 -27 -33 -2 -16 -8 -34 -12 -39 -11
-13 -9 -55 2 -55 5 0 6 12 2 28 -4 21 -3 24 5 12 6 -8 11 -23 11 -33 0 -14 -6
-18 -27 -15 -25 3 -28 0 -28 -25 -1 -16 4 -27 12 -27 16 0 17 12 1 28 -6 6
-10 14 -7 16 2 2 12 -7 22 -20 17 -23 17 -24 -8 -30 -25 -6 -34 -28 -15 -39 6
-3 10 -13 10 -21 0 -12 -3 -12 -23 1 -13 8 -28 12 -32 8 -5 -5 -1 4 8 19 23
37 22 41 -14 34 l-30 -6 23 29 c13 16 25 27 27 25 2 -2 -2 -10 -9 -19 -7 -8
-8 -15 -2 -15 12 0 24 29 17 40 -3 5 -12 7 -20 4 -19 -8 -55 65 -62 127 -3 27
-10 49 -14 49 -12 0 -29 -35 -29 -58 0 -65 -189 -160 -208 -104 -2 7 2 10 12
6 25 -10 75 16 91 45 7 15 16 43 20 63 7 34 5 37 -20 40 l-27 3 26 30 c30 35
49 82 36 90 -5 3 -28 -8 -51 -25 -23 -16 -44 -28 -47 -26 -5 6 48 156 56 156
6 0 -1 -25 -27 -88 -14 -36 -17 -52 -9 -49 7 2 12 9 11 15 -2 6 6 32 18 58 20
49 19 76 -3 72 -7 -2 -12 2 -11 9 2 7 -7 17 -18 24 -17 9 -20 8 -14 -2 5 -7 4
-10 -3 -5 -6 3 -14 1 -18 -5 -5 -9 1 -10 20 -5 17 4 25 3 22 -3 -7 -10 -65
-26 -72 -19 -2 3 13 20 33 39 20 19 32 27 28 19 -5 -10 -1 -8 13 4 26 22 30
35 5 15 -15 -12 -16 -12 -10 4 8 20 6 21 -28 5 -36 -16 -39 -6 -13 38 19 32
20 37 5 31 -23 -9 -23 20 0 46 17 18 17 20 -3 36 -20 16 -21 19 -6 47 8 16 11
26 7 22 -5 -4 -14 -3 -21 3 -9 7 -21 6 -41 -7 l-28 -16 25 21 c14 11 29 21 33
21 18 0 -1 25 -23 30 -25 6 -25 6 -54 140 -5 26 -33 22 -56 -7 -17 -22 -21
-38 -18 -75 2 -27 -1 -50 -7 -52 -5 -3 -3 -5 6 -5 13 -1 15 8 11 49 -5 55 16
100 46 99 13 0 12 -2 -5 -9 -27 -11 -37 -47 -30 -105 6 -39 4 -44 -15 -47 -34
-5 -33 -27 4 -43 18 -8 28 -14 22 -15 -27 -1 -71 26 -66 40 2 8 -3 5 -12 -7
-13 -17 -14 -27 -7 -42 8 -14 7 -21 -2 -24 -6 -3 -2 -6 11 -6 22 -1 22 0 6 24
-29 44 -11 34 24 -13 25 -32 29 -43 15 -37 -63 27 -78 14 -43 -36 l21 -28 -31
11 c-17 5 -34 8 -37 4 -3 -3 13 -35 35 -71 23 -36 39 -65 35 -65 -3 0 -21 14
-40 31 -47 40 -53 30 -14 -23 34 -46 28 -57 -20 -38 -16 7 -32 10 -36 7 -9
-10 6 -72 31 -122 l24 -47 -21 6 c-51 14 -107 18 -107 8 0 -6 29 -40 65 -74
61 -60 79 -88 54 -88 -5 0 -7 5 -3 11 4 7 -22 38 -61 75 -82 77 -83 100 -5 91
28 -3 50 -3 50 1 0 5 -23 8 -51 7 -38 0 -55 -5 -63 -17 -9 -15 0 -28 58 -83
58 -55 66 -68 56 -80 -7 -9 -10 -18 -6 -22 3 -3 6 0 6 8 1 10 3 9 11 -4 5 -9
19 -17 29 -17 11 0 20 -4 20 -10 0 -20 -48 -21 -106 -1 -146 49 -162 46 -117
-21 28 -42 119 -125 128 -117 2 3 -17 20 -43 39 -44 33 -101 103 -101 125 -1
6 12 -10 28 -35 41 -65 144 -139 177 -126 8 3 14 1 14 -4 0 -5 -18 -15 -40
-21 -21 -7 -41 -19 -43 -28 -4 -13 -5 -13 -6 2 0 9 -4 17 -9 17 -4 0 -31 18
-61 40 -30 23 -58 37 -64 33 -8 -5 -5 -9 8 -11 18 -4 115 -71 115 -80 0 -5
-22 9 -61 40 -40 30 -69 36 -69 14 0 -21 77 -132 111 -161 17 -14 43 -26 57
-26 20 -1 17 -3 -13 -9 -22 -5 -62 -4 -89 1 -102 19 -119 8 -64 -43 64 -60
139 -82 191 -57 21 10 21 10 3 -5 -17 -14 -66 -21 -116 -17 -17 1 -163 34
-169 37 -2 2 6 15 18 30 25 31 22 39 -11 28 -13 -4 -26 -7 -30 -6 -5 1 -8 -2
-8 -7 0 -5 -8 -12 -17 -16 -12 -4 -9 3 10 22 32 34 36 84 9 111 -14 14 -16 22
-8 35 8 12 7 20 -6 29 -19 15 -50 116 -53 175 -1 20 -14 26 -30 13 -8 -7 -15
-20 -14 -29 0 -11 3 -9 9 7 5 12 15 22 22 22 9 0 10 -2 1 -8 -6 -4 -14 -29
-18 -57 -10 -74 -14 -82 -38 -88 l-22 -6 23 16 c17 12 22 24 20 57 -1 40 -1
40 -5 6 -3 -23 -17 -48 -40 -72 -30 -30 -34 -40 -24 -52 8 -10 9 -16 1 -21 -5
-3 -10 -17 -10 -29 0 -13 -7 -29 -15 -36 -20 -16 -19 -34 2 -51 11 -10 14 -10
9 -2 -10 18 9 16 23 -1 10 -12 6 -14 -20 -12 -33 2 -38 -4 -43 -50 -1 -16 -8
-28 -14 -26 -9 1 -8 -8 3 -34 19 -46 19 -47 -5 -39 -22 7 -50 -9 -50 -29 0 -7
14 -27 31 -46 l30 -35 -26 37 c-33 45 -28 68 14 65 16 -1 27 -5 25 -8 -2 -4 3
-9 11 -13 12 -4 11 3 -5 34 -31 61 -23 69 9 9 16 -30 25 -55 21 -57 -5 -2 -22
4 -39 12 -60 31 -67 14 -20 -45 28 -36 29 -39 10 -39 -11 0 -23 -5 -26 -11
-12 -18 16 -67 49 -89 17 -11 25 -20 19 -20 -20 0 -28 4 -25 13 1 4 -4 7 -11
5 -7 -2 -32 6 -55 16 -23 11 -45 17 -48 13 -8 -7 19 -56 61 -111 l35 -46 -60
30 -60 30 17 27 17 26 -29 -7 c-19 -4 -25 -3 -16 2 9 7 10 12 2 16 -6 4 -11
17 -11 28 0 11 -8 39 -19 62 -26 58 -51 137 -51 163 0 12 -5 24 -10 26 -6 3
-5 4 2 3 6 -1 17 -24 24 -52 28 -109 32 -123 49 -145 18 -25 17 -22 -2 21 -16
37 -43 130 -43 150 0 10 -7 23 -15 30 -21 17 -40 -1 -67 -61 -23 -55 -36 -56
-36 -3 0 19 -7 43 -16 53 -11 12 -13 20 -5 28 8 8 5 20 -12 42 -13 18 -23 46
-24 64 0 26 -4 31 -19 29 -12 -2 -16 1 -10 10 4 7 -2 4 -14 -6 -37 -32 -83
-126 -72 -146 5 -10 6 -21 2 -25 -4 -5 -1 -5 6 -1 9 5 9 12 1 27 -18 35 -5 30
19 -7 12 -19 18 -34 12 -34 -5 0 -10 5 -10 12 0 6 -9 3 -20 -7 -11 -10 -20
-14 -20 -10 0 5 -11 -2 -25 -15 -14 -13 -25 -28 -25 -33 0 -5 10 2 22 16 l22
25 13 -26 c14 -27 11 -38 -6 -27 -6 3 -9 11 -6 16 4 5 -1 9 -10 9 -9 0 -15 -6
-13 -14 2 -8 -1 -15 -7 -16 -25 -3 -56 -45 -52 -70 4 -17 -3 -36 -19 -57 -21
-28 -23 -35 -12 -53 10 -16 10 -24 0 -40 -6 -11 -12 -38 -12 -60 0 -32 -4 -40
-18 -40 -10 0 -23 -5 -30 -12 -9 -9 -12 -6 -12 14 0 14 -7 31 -15 38 -11 9
-12 17 -4 32 8 15 8 19 0 14 -6 -4 -11 -3 -11 2 0 5 -14 6 -31 4 -35 -5 -34
-10 -13 67 6 19 4 22 -7 16 -12 -8 -12 -6 0 8 21 26 4 34 -31 14 l-31 -18 17
23 c45 63 46 93 1 64 l-26 -17 15 29 c14 27 13 32 -4 66 -11 20 -20 52 -20 71
0 24 -5 35 -15 35 -8 0 -15 -7 -15 -15 0 -8 -18 -24 -40 -35 -47 -24 -61 -25
-54 -5 7 17 -21 21 -31 4 -7 -10 -25 -19 -75 -34 -23 -7 -24 -7 -10 10 14 17
13 17 -7 7 -12 -7 -34 -12 -50 -11 -15 0 -22 3 -15 6 21 8 14 36 -8 30 -22 -6
-37 8 -20 18 5 3 19 1 31 -6 19 -10 21 -9 16 5 -5 12 -1 16 14 16 15 0 20 5
17 18 -4 15 1 17 34 14 24 -3 38 0 38 8 0 6 3 9 8 7 4 -3 16 -1 27 4 16 6 12
8 -16 8 -21 1 -42 8 -50 18 -13 15 -12 15 8 5 27 -15 83 -16 83 -2 0 6 -7 10
-15 10 -8 0 -15 4 -15 9 0 6 12 6 31 -1 23 -8 41 -7 70 1 41 12 53 31 20 31
-11 0 -23 5 -26 10 -3 6 0 10 8 10 8 0 20 7 27 15 7 8 16 13 20 10 5 -3 12 0
16 6 4 8 3 9 -4 5 -7 -4 -12 -2 -12 4 0 6 -11 8 -27 5 -25 -5 -25 -4 -6 4 16
7 20 15 15 33 l-6 23 -7 -25 c-7 -24 -7 -24 -8 -2 -1 12 -6 22 -12 22 -6 0 -7
6 -2 12 4 7 -7 2 -24 -12 -32 -26 -37 -44 -5 -19 10 8 7 3 -8 -10 l-25 -24 -3
21 c-2 12 -9 22 -15 22 -7 0 -6 4 3 10 8 5 10 10 4 10 -6 0 -17 -6 -23 -14
-15 -18 -58 -29 -74 -19 -13 9 -129 11 -120 3 3 -3 30 -5 61 -5 49 0 57 -3 59
-20 1 -16 1 -17 -3 -2 -5 15 -13 17 -47 12 -24 -4 -55 -1 -72 5 -28 11 -29 12
-10 22 21 12 35 28 35 41 0 5 -21 5 -46 1 l-47 -7 22 22 c30 30 26 41 -14 34
-31 -5 -35 -3 -35 16 0 15 -6 21 -24 21 -13 0 -29 7 -36 15 -11 13 -7 15 23
15 36 0 111 32 125 54 4 6 7 24 7 41 0 19 5 30 14 30 8 0 16 7 18 15 4 12 3
13 -5 1 -8 -10 -11 -7 -16 16 l-7 30 -63 -14 c-54 -12 -68 -13 -90 -1 -23 12
-21 13 38 12 61 -2 64 -1 62 20 -2 13 5 33 16 45 10 13 18 19 18 13 0 -6 -7
-18 -16 -26 -8 -9 -11 -16 -5 -16 12 0 35 39 28 47 -3 3 -30 6 -61 6 -34 1
-61 8 -70 17 -14 13 -11 15 27 12 23 -2 56 2 72 9 l30 12 -39 12 c-24 7 -35
14 -28 19 20 12 14 36 -9 36 -12 0 -36 7 -55 16 -35 17 -35 17 -15 35 11 11
27 19 34 19 25 0 82 27 101 49 24 26 13 43 -20 31 -23 -9 -25 -8 -19 10 6 17
2 20 -29 20 -19 0 -41 3 -49 6 -14 5 -13 8 1 23 11 11 20 14 25 7 5 -7 7 -5 4
4 -2 8 -20 18 -41 21 -40 7 -74 29 -43 29 9 0 17 -4 17 -10 0 -5 12 -10 28 -9
l27 1 -25 7 c-39 11 -32 41 14 56 22 8 56 30 75 51 20 20 30 33 22 29 -11 -6
-13 -4 -8 8 8 21 -10 32 -27 18 -7 -6 -16 -8 -19 -4 -4 3 -7 1 -7 -5 0 -15 17
-16 25 -2 3 6 11 10 18 10 15 0 -25 -29 -40 -30 -7 0 -13 9 -13 21 0 11 -5 17
-10 14 -6 -4 -25 -11 -42 -15 -29 -9 -30 -8 -14 9 23 25 20 34 -8 27 -26 -6
-56 1 -56 13 0 7 47 34 62 35 3 1 10 5 15 10 5 5 3 6 -4 2 -7 -4 -13 -3 -13 2
0 5 -13 12 -30 16 -23 4 -30 11 -30 30 0 16 7 25 23 29 21 6 21 5 3 -8 -22
-17 -15 -46 11 -44 17 1 17 2 1 6 -23 6 -23 12 5 41 12 14 16 22 8 17 -11 -6
-13 -4 -8 9 6 14 3 16 -15 10 -20 -6 -21 -5 -9 9 7 9 17 15 21 12 5 -3 12 0
16 6 4 8 3 9 -4 5 -7 -4 -12 -2 -12 4 0 6 -10 8 -25 4 -23 -6 -25 -3 -25 29 0
48 -11 97 -21 97 -5 0 -9 -18 -9 -40 0 -27 -4 -38 -12 -36 -7 3 -26 7 -43 11
-25 6 -27 8 -12 16 23 14 22 39 -3 39 -25 0 -95 28 -88 35 3 3 18 -1 34 -10
16 -8 39 -15 52 -15 14 0 26 -8 32 -22 5 -14 9 -17 9 -7 1 21 -19 39 -44 39
-11 0 -33 7 -48 15 -15 8 -34 12 -41 9 -8 -3 -17 -1 -20 5 -4 6 13 13 41 17
48 6 113 29 113 38 0 3 -16 -2 -35 -10 -19 -7 -47 -13 -62 -13 -27 2 -27 2 -3
6 52 8 111 35 106 48 -3 8 2 19 10 25 24 21 16 29 -23 25 l-38 -5 35 10 c45
11 60 -2 35 -32 l-19 -23 24 22 c20 19 21 24 10 38 -8 9 -22 14 -32 12 -10 -3
-18 -1 -18 5 0 6 -7 7 -16 4 -8 -3 -36 -1 -60 5 -43 11 -44 12 -24 26 28 20
26 43 -6 43 -28 0 -64 16 -64 29 0 5 7 12 16 15 14 5 15 4 5 -8 -13 -16 -7
-19 54 -28 13 -3 20 -11 19 -26 0 -16 2 -20 10 -12 17 17 -7 45 -43 48 -34 4
-38 11 -18 31 10 11 10 13 0 7 -7 -4 -13 -2 -13 4 0 6 -4 8 -10 5 -13 -8 -50
13 -50 28 0 9 16 13 48 14 56 1 121 30 151 69 12 15 21 22 21 17 0 -14 -51
-59 -90 -78 -19 -10 -54 -18 -77 -19 -41 -1 -56 -10 -31 -18 33 -11 139 36
182 80 35 38 27 58 -14 37 -39 -20 -50 -19 -50 6 0 18 -4 20 -22 14 -13 -4
-36 -9 -51 -12 l-29 -6 24 25 c25 26 39 29 18 3 -16 -19 -2 -19 30 1 14 8 17
13 8 10 -9 -3 -18 0 -21 7 -2 6 -25 11 -58 10 l-54 -1 45 8 c32 5 38 8 20 10
-14 2 -33 3 -42 2 -10 -1 -18 3 -18 9 0 5 4 8 9 5 5 -3 19 3 32 13 13 10 28
19 32 19 5 0 12 4 15 8 4 4 1 4 -5 0 -7 -4 -13 -3 -13 3 0 5 -12 16 -27 23
-16 8 -27 21 -27 31 1 9 -2 17 -7 17 -5 0 -9 -9 -9 -20 0 -14 11 -26 33 -35
17 -8 25 -14 17 -15 -27 0 -60 30 -60 56 0 13 4 24 9 24 5 0 17 3 27 7 13 5
15 3 9 -8 -8 -12 -6 -12 8 0 19 15 23 26 5 15 -8 -5 -9 -2 -5 9 5 13 1 17 -18
17 l-24 0 22 23 c25 26 36 26 16 0 -12 -17 -12 -17 5 -1 24 21 13 40 -17 29
-32 -12 -47 -3 -47 28 0 50 -13 121 -21 121 -5 0 -9 -33 -10 -72 -1 -95 -9
-121 -39 -128 -31 -7 -36 -26 -11 -42 27 -17 28 -55 1 -61 -17 -4 -16 -4 2 -3
32 2 38 50 9 66 -12 6 -21 16 -21 22 0 6 8 4 18 -5 10 -10 23 -17 29 -17 12 0
5 -49 -10 -67 -5 -7 -18 -13 -28 -13 -25 0 -24 -26 0 -42 29 -18 7 -38 -40
-38 -22 0 -39 -4 -39 -8 0 -11 30 -38 50 -44 8 -3 -2 -9 -23 -13 -22 -4 -52
-3 -70 3 -27 8 -24 9 23 4 30 -2 52 -1 48 3 -4 4 -27 8 -53 10 -35 2 -48 -1
-55 -15 -8 -14 -3 -25 21 -48 45 -44 81 -57 121 -43 30 10 31 9 14 -4 -18 -13
-63 -21 -91 -15 -5 1 1 -10 14 -24 14 -14 29 -26 34 -26 5 0 -1 9 -14 21 l-24
21 25 -16 c13 -9 35 -16 47 -16 34 0 28 -19 -12 -36 -31 -13 -39 -12 -70 1
-30 12 -37 12 -41 0 -3 -7 0 -23 6 -34 6 -12 8 -26 5 -31 -3 -6 3 -10 15 -10
19 0 20 2 6 15 -17 18 -30 54 -22 62 3 4 6 -1 6 -10 0 -8 12 -30 27 -48 l27
-32 -44 6 c-25 3 -55 9 -67 13 -36 10 -28 -14 20 -61 39 -39 40 -43 18 -43
-13 0 -27 -5 -31 -12 -5 -9 -9 -9 -13 -1 -4 8 -5 8 -3 0 1 -7 11 -14 22 -15
29 -4 104 -32 147 -55 20 -11 37 -15 37 -10 0 6 5 11 12 11 23 0 -47 -61 -82
-71 -32 -10 -45 -8 -99 14 -59 24 -63 24 -58 6 6 -21 -10 -25 -33 -8 -13 9
-12 10 3 5 9 -3 17 -2 17 3 0 5 -9 11 -19 14 -16 4 -18 0 -17 -26 1 -16 9 -35
18 -41 12 -9 13 -14 3 -23 -7 -7 -15 -11 -17 -10 -2 1 8 -10 24 -25 19 -19 33
-25 45 -20 15 6 14 7 -7 10 -14 2 -29 8 -35 14 -7 8 -4 9 8 4 10 -3 31 -6 45
-6 l27 -1 -22 -18 c-27 -22 -29 -31 -9 -31 8 0 21 -7 29 -15 26 -25 107 -48
149 -41 58 9 46 -1 -16 -14 -41 -8 -65 -8 -97 0 -58 16 -74 -1 -34 -38 27 -25
28 -25 7 -1 -12 14 -22 29 -22 33 0 5 10 -4 22 -19 12 -15 35 -33 52 -41 17
-7 24 -13 16 -13 -8 -1 -22 3 -30 8 -20 13 -44 -23 -36 -55 5 -18 2 -24 -10
-24 -10 0 -15 -3 -11 -6 3 -3 15 -3 27 1 16 5 19 10 10 20 -24 29 -8 49 42 50
32 0 42 -2 32 -8 -9 -5 -30 -6 -46 -3 -32 6 -33 2 -13 -46 5 -12 -1 -18 -24
-23 -17 -3 -35 -4 -41 0 -5 3 -10 1 -10 -5 0 -6 -5 -8 -12 -4 -8 5 -8 1 1 -10
8 -9 28 -24 45 -33 17 -8 44 -27 60 -42 16 -14 25 -20 21 -12 -6 11 -4 13 9 8
10 -4 27 -7 38 -7 26 0 18 -23 -10 -30 -20 -5 -21 -7 -7 -32 l14 -28 -38 0
c-32 0 -95 29 -64 30 6 0 15 -5 18 -10 3 -5 19 -10 35 -10 24 0 28 3 23 17 -4
11 -8 12 -11 5 -5 -15 -34 -16 -49 -1 -17 17 -31 3 -27 -28 4 -24 3 -25 -5 -8
-9 19 -10 19 -10 -3 -1 -19 -5 -22 -23 -17 -37 12 -47 27 -13 21 17 -4 23 -3
15 0 -8 4 -23 11 -34 16 -13 7 -16 7 -12 -1 4 -6 3 -11 -2 -11 -18 0 0 -40 27
-61 l26 -21 -38 4 c-28 3 -36 1 -33 -9 4 -9 -4 -13 -24 -13 -34 0 -39 -13 -12
-30 16 -11 16 -11 0 -6 -23 7 -23 -12 -1 -36 17 -19 16 -19 -12 -13 -37 8
-107 55 -113 75 -2 8 11 0 30 -17 19 -18 37 -33 41 -33 4 0 -11 16 -33 36 -22
20 -37 41 -33 47 3 6 1 7 -5 3 -7 -4 -12 -2 -12 3 0 6 -15 11 -33 11 -41 0
-51 8 -32 27 23 22 18 31 -17 35 -28 2 -34 8 -36 31 -4 31 -5 31 -34 16 -20
-11 -20 -11 -2 15 11 14 29 26 41 26 42 0 98 33 87 51 -2 4 4 13 14 20 15 13
16 12 3 -3 -7 -10 -9 -18 -3 -18 19 0 21 29 3 52 -15 17 -27 22 -58 20 -21 -2
-52 2 -68 8 -29 11 -29 12 -10 23 11 6 25 12 30 12 16 0 12 27 -5 35 -35 17
-84 30 -73 19 6 -6 26 -14 44 -18 18 -4 34 -12 35 -19 1 -7 0 -8 -3 -2 -2 5
-14 10 -24 10 -11 0 -34 7 -50 16 -29 14 -30 16 -12 29 13 10 20 10 26 2 6 -8
7 -7 5 3 -3 8 -19 18 -36 22 -47 13 -42 38 8 38 50 0 106 23 143 57 15 15 27
22 27 15 0 -24 -90 -73 -146 -79 -32 -3 -51 -10 -46 -15 13 -13 104 12 147 41
34 23 88 86 58 68 -6 -4 -13 -1 -15 5 -6 18 -58 18 -58 1 0 -10 5 -11 19 -3
30 15 39 11 11 -5 -37 -21 -48 -18 -42 10 2 15 0 25 -7 25 -7 0 -9 5 -5 12 4
7 3 8 -5 4 -6 -4 -9 -12 -6 -17 7 -10 -41 -32 -59 -27 -6 2 0 14 13 27 15 15
22 17 18 7 -4 -10 -1 -16 9 -16 12 0 12 4 4 20 -11 20 -83 45 -100 35 -6 -3
-10 -1 -10 4 0 6 9 11 19 11 11 0 27 10 35 22 9 12 16 18 16 14 0 -5 -8 -19
-17 -30 -16 -20 -16 -20 6 0 24 23 21 47 -4 37 -9 -3 -26 2 -40 11 -32 21 -34
61 -3 69 12 4 24 4 27 1 3 -3 -5 -7 -17 -11 -27 -7 -29 -39 -3 -53 31 -16 35
-12 10 9 l-23 18 29 25 c31 27 27 48 -10 48 l-24 0 22 23 c25 26 36 26 16 0
-12 -17 -12 -17 5 -1 26 23 12 40 -20 26 -34 -16 -41 -5 -47 82 -3 45 -2 65 3
50 4 -14 8 -49 9 -77 1 -39 5 -53 15 -53 8 0 18 5 22 12 5 7 2 9 -8 6 -13 -5
-16 6 -21 59 -3 44 -11 71 -22 82 -10 9 -15 10 -11 4 4 -7 2 -13 -3 -13 -7 0
-11 -33 -11 -88 0 -90 -8 -112 -41 -112 -23 0 -34 -19 -20 -33 9 -9 10 -7 5 8
-7 19 -6 19 12 4 10 -9 26 -19 34 -23 9 -4 7 -5 -6 -3 -17 4 -19 0 -16 -24 3
-23 0 -28 -19 -31 -30 -4 -28 -35 3 -59 l21 -17 -22 -11 c-12 -7 -34 -10 -49
-8 -27 4 -27 4 3 6 17 1 37 6 45 11 10 6 2 8 -25 4 -22 -4 -45 -13 -51 -20 -6
-8 -15 -10 -19 -6 -5 4 -1 -5 8 -20 16 -25 16 -28 2 -28 -9 0 -25 5 -36 10
-11 6 -19 7 -19 2 0 -11 34 -22 69 -22 23 0 24 1 6 20 -26 29 -15 32 18 5 l27
-24 -35 -7 c-19 -3 -48 -1 -65 4 -24 9 -30 8 -30 -4 0 -7 5 -14 12 -14 6 0 9
-2 7 -5 -8 -7 -49 7 -49 17 0 5 5 6 10 3 6 -3 10 -2 10 4 0 5 2 16 6 24 4 10
-5 16 -35 20 -22 3 -57 15 -77 28 -36 22 -37 23 -15 33 12 5 20 15 17 23 -4 9
4 13 24 13 37 0 111 29 128 49 16 20 37 58 27 49 -4 -4 -15 2 -25 14 -11 15
-19 18 -24 10 -4 -8 0 -12 11 -13 14 0 12 -3 -6 -10 -28 -11 -40 -4 -23 13 18
18 14 29 -10 27 -38 -3 -72 1 -87 10 -12 8 -12 12 -2 25 7 8 18 14 23 13 6 -1
13 5 15 13 4 13 3 13 -6 0 -9 -13 -11 -13 -11 2 0 11 -5 15 -14 12 -17 -6 -86
21 -86 34 0 6 7 13 16 16 14 5 15 4 5 -8 -9 -11 -6 -16 20 -25 17 -6 38 -7 46
-3 10 6 5 9 -16 9 -39 0 -48 8 -30 30 9 11 10 14 2 9 -7 -4 -13 -2 -13 3 0 6
-8 11 -18 11 -20 0 -42 18 -42 34 0 6 23 11 53 12 62 1 123 29 161 75 31 36
22 59 -13 37 -18 -11 -23 -10 -36 10 -17 23 -40 29 -50 12 -4 -6 3 -9 16 -7
16 1 24 -4 28 -20 6 -22 7 -22 35 -8 15 8 31 15 34 15 12 0 -33 -27 -55 -34
-20 -6 -23 -4 -23 19 0 22 -3 26 -17 20 -31 -12 -85 -27 -88 -23 -2 2 8 13 22
26 16 14 23 17 19 7 -3 -8 0 -15 7 -15 7 0 13 9 13 20 0 10 -2 17 -5 15 -2 -3
-9 2 -15 9 -14 18 -96 32 -96 17 0 -6 21 -11 48 -12 36 -1 41 -3 22 -8 -14 -4
-36 -5 -50 -1 -30 8 -40 40 -13 40 22 0 63 27 63 41 0 5 -8 9 -18 9 -34 0 -62
29 -61 63 l2 32 6 -35 c5 -28 12 -37 38 -45 46 -15 49 -22 22 -53 l-23 -27 28
27 c34 31 26 52 -24 62 -39 7 -38 29 2 65 27 24 30 31 20 44 -7 8 -9 23 -6 33
6 18 6 18 -9 -1 -13 -17 -13 -21 1 -31 15 -11 15 -14 -2 -33 -11 -12 -24 -21
-30 -21 -6 0 0 7 12 16 30 21 28 34 -5 34 l-27 0 22 16 c30 21 28 34 -7 34
-25 0 -29 4 -35 38 -3 20 -6 58 -6 85 0 31 -4 47 -13 47 -9 0 -13 -27 -15 -97
-3 -100 -11 -123 -43 -123 -13 0 -17 -5 -12 -17 6 -16 5 -16 -13 -4 -10 7 -4
0 14 -17 39 -34 39 -63 2 -73 -21 -6 -22 -7 -5 -8 44 -2 64 61 24 74 -27 9
-20 16 9 8 24 -6 30 -40 11 -74 -8 -16 -19 -20 -47 -17 -45 4 -54 -18 -21 -48
l23 -19 -17 25 c-9 13 -17 29 -17 35 1 5 8 -2 16 -17 8 -16 21 -28 29 -28 8 0
15 -4 15 -10 0 -15 -36 -30 -72 -29 -30 1 -30 2 9 8 57 10 66 21 11 14 -24 -3
-48 -11 -54 -19 -6 -8 -15 -10 -19 -6 -12 10 6 -20 23 -40 8 -10 20 -18 26
-18 6 0 0 7 -12 16 -12 8 -22 20 -22 26 0 7 9 2 20 -10 12 -12 25 -22 30 -22
6 0 10 -4 10 -9 0 -15 -63 -22 -100 -11 -23 7 -36 7 -38 0 -2 -6 -9 -7 -15 -4
-7 4 4 -10 23 -30 36 -39 79 -66 102 -66 7 0 -5 9 -27 19 -22 10 -51 31 -65
47 l-25 29 30 -27 c34 -30 94 -58 125 -58 12 0 18 -4 15 -10 -4 -6 -16 -8 -27
-4 -14 4 -18 3 -13 -5 5 -8 -1 -10 -18 -6 -16 4 -28 2 -33 -7 -4 -7 -4 -10 1
-6 4 4 19 -2 33 -12 13 -11 35 -20 48 -20 39 0 28 -28 -16 -41 -31 -9 -46 -9
-66 -1 -33 16 -34 15 -34 -9 0 -11 13 -34 29 -50 l29 -29 -41 0 c-23 1 -55 8
-72 16 -16 8 -22 12 -12 9 51 -14 100 -18 93 -6 -4 6 -12 9 -17 6 -5 -3 -26
-1 -46 4 -21 6 -41 7 -46 2 -18 -18 50 -108 93 -124 8 -3 -4 -6 -27 -6 -24 -1
-43 -5 -43 -9 0 -11 66 -41 111 -52 28 -7 30 -8 9 -9 -14 0 -44 8 -68 19 -23
11 -40 15 -37 10 3 -4 27 -16 53 -26 26 -9 65 -25 86 -35 22 -10 44 -15 50
-11 6 3 -4 9 -22 13 -18 4 -36 10 -40 14 -4 5 1 5 11 2 10 -4 32 -7 48 -7 l30
0 -18 -25 c-43 -59 -127 -69 -214 -24 l-42 21 7 -26 c7 -29 2 -31 -33 -12 -21
12 -27 12 -38 0 -11 -11 -18 -11 -33 -2 -10 7 -17 15 -15 18 2 3 -9 5 -23 4
-46 -4 -48 -6 -12 -14 l35 -7 -37 -2 c-28 -1 -38 3 -38 14 0 8 6 15 13 15 14
0 47 31 47 43 0 3 -12 7 -27 9 -22 2 -29 9 -31 31 -2 15 1 27 6 27 5 0 8 -10
8 -22 -1 -15 6 -24 19 -26 31 -6 38 -18 26 -41 -7 -12 -9 -21 -7 -21 3 0 10 9
16 21 14 25 -2 49 -32 49 -15 0 -18 6 -15 28 2 15 9 27 15 27 5 0 14 4 19 9 5
5 3 6 -4 2 -7 -4 -13 -2 -13 3 0 6 -7 11 -16 11 -8 0 -13 4 -9 10 3 5 12 7 20
3 8 -3 15 0 15 7 0 6 -5 8 -12 4 -7 -5 -9 -2 -6 8 5 11 1 14 -17 10 -20 -3
-25 1 -30 30 -4 19 -5 52 -2 73 3 36 4 35 5 -12 2 -58 9 -83 24 -83 7 0 7 4 0
13 -6 7 -12 37 -14 67 -3 47 -6 55 -22 52 -13 -2 -16 1 -10 10 6 10 4 10 -9
-1 -9 -7 -17 -21 -16 -30 0 -12 2 -11 9 4 6 13 7 -9 4 -60 -7 -98 -9 -105 -31
-104 -16 1 -16 2 -1 6 13 3 17 19 20 68 2 35 0 61 -4 58 -5 -2 -8 -28 -8 -58
0 -37 -4 -55 -15 -59 -9 -3 -12 -12 -8 -22 5 -13 3 -15 -8 -9 -8 5 -4 -3 9
-17 27 -29 28 -43 5 -58 -17 -11 -17 -11 0 -6 10 3 21 6 23 6 12 0 1 45 -13
56 -16 12 -16 12 5 7 16 -4 22 -13 22 -34 0 -30 -30 -55 -55 -45 -23 8 -29
-14 -9 -32 17 -16 17 -16 5 1 -20 26 -9 26 16 0 l22 -23 -21 -11 c-11 -6 -31
-9 -44 -6 -13 2 -24 0 -24 -5 0 -5 -5 -6 -11 -2 -8 4 -8 0 0 -15 11 -19 9 -20
-21 -16 -29 4 -30 4 -8 -4 14 -5 33 -9 44 -10 15 -1 16 1 6 14 -19 23 -8 26
18 5 20 -17 21 -19 4 -24 -9 -3 -41 -4 -69 -2 -41 4 -51 2 -47 -9 6 -15 73
-69 79 -64 2 2 -12 15 -31 29 -18 14 -34 29 -34 34 0 4 16 -6 35 -22 19 -17
51 -34 71 -38 25 -5 32 -9 22 -15 -7 -5 -22 -9 -33 -9 -17 0 -17 2 -5 10 10 7
11 10 2 10 -7 0 -15 -7 -18 -15 -4 -8 -11 -12 -18 -8 -6 3 -2 -3 8 -15 21 -24
32 -29 20 -10 -5 8 -2 9 12 3 10 -4 27 -8 37 -9 25 -1 21 -25 -6 -31 -13 -4
-41 -5 -63 -3 -37 3 -39 2 -37 -25 2 -22 -2 -27 -12 -23 -38 15 -48 16 -25 2
14 -8 33 -15 43 -16 15 0 16 3 7 21 -6 11 -9 25 -6 32 2 7 5 4 5 -5 1 -10 10
-27 21 -38 l20 -20 -30 0 c-16 0 -41 5 -55 12 -42 19 -54 -3 -24 -47 13 -19
28 -35 32 -35 5 0 -3 14 -17 31 -14 17 -26 36 -26 42 0 7 9 -2 19 -19 11 -18
30 -39 42 -48 l23 -16 -27 0 c-15 0 -27 -4 -27 -8 0 -9 61 -38 95 -45 18 -4
17 -5 -3 -6 -25 -1 -97 32 -105 49 -3 6 -4 5 -3 -2 4 -20 78 -58 116 -59 19 0
45 -4 58 -8 l24 -6 -25 -23 c-36 -34 -85 -38 -142 -13 -52 23 -66 21 -44 -6
15 -18 14 -18 -38 4 -20 8 -15 -15 6 -36 14 -14 16 -21 8 -25 -9 -3 -8 -8 3
-15 12 -9 11 -11 -8 -11 -19 0 -21 3 -13 18 12 22 -3 42 -32 42 -10 0 -15 5
-12 10 4 6 10 8 14 6 4 -3 8 0 8 7 1 7 5 26 10 42 7 21 5 38 -4 55 -12 24 -13
24 -13 3 0 -12 5 -23 11 -25 6 -2 -1 -9 -15 -16 -25 -11 -26 -10 -16 7 11 22
14 61 3 61 -4 0 -23 -15 -42 -32 l-35 -33 31 40 c16 22 36 51 43 64 12 23 11
24 -20 18 -28 -6 -31 -5 -25 11 17 40 15 58 -9 91 -16 21 -26 48 -26 68 0 34
-13 44 -24 18 -3 -8 -8 -44 -12 -80 -5 -50 -10 -65 -23 -65 -10 0 -12 3 -5 8
7 4 15 35 19 69 7 65 25 101 43 89 7 -4 12 -22 12 -40 0 -19 10 -46 26 -67 18
-24 24 -42 20 -61 -3 -16 -2 -28 2 -28 19 0 10 58 -13 90 -14 19 -25 47 -25
66 0 17 -7 38 -16 45 -25 20 -50 -18 -59 -88 -4 -32 -10 -62 -13 -68 -4 -5 -7
-16 -8 -23 -3 -19 -14 -28 -14 -12 0 7 -8 2 -19 -11 -13 -17 -18 -37 -16 -66
1 -24 -2 -40 -6 -37 -5 3 -9 12 -9 21 0 9 -3 14 -6 10 -10 -10 7 -47 21 -47 8
0 16 -4 19 -9 3 -4 -6 -6 -19 -3 -36 6 -32 -19 9 -63 30 -31 53 -75 39 -75 -2
0 -19 12 -38 26 -22 17 -32 32 -30 44 2 11 0 22 -6 25 -5 4 -9 16 -10 28 0 12
-3 16 -6 9 -3 -7 -1 -20 3 -30 10 -24 11 -36 2 -43 -5 -3 3 -22 17 -43 14 -20
25 -39 25 -41 0 -3 -18 -5 -40 -5 -41 0 -55 -19 -27 -37 14 -9 60 -103 53
-110 -2 -3 -13 0 -23 6 -10 6 -13 11 -6 11 7 0 10 7 7 15 -4 8 -10 13 -14 10
-5 -3 -6 4 -3 16 5 18 3 19 -23 12 -45 -12 -157 -10 -161 4 -3 9 4 9 29 1 27
-8 42 -6 73 8 22 9 47 16 54 15 13 -2 13 0 1 14 -9 11 -16 13 -24 5 -5 -5 -13
-10 -17 -10 -4 0 4 12 19 28 22 21 34 26 62 23 19 -2 31 0 27 5 -4 4 -43 7
-86 6 -63 -2 -82 1 -100 15 -22 18 -22 18 21 15 46 -4 98 11 98 28 0 5 -10 10
-22 10 -36 0 -48 13 -30 30 14 13 15 12 9 -3 -5 -14 -1 -17 21 -16 16 1 20 3
10 6 -9 2 -15 10 -12 16 3 8 -6 13 -23 15 -35 3 -115 41 -108 52 3 5 14 8 24
7 19 -1 115 33 109 39 -3 2 -28 -5 -56 -16 -29 -11 -52 -16 -52 -11 0 5 12 12
28 15 52 13 83 29 78 42 -3 7 2 15 10 18 29 11 15 28 -18 21 -26 -5 -29 -4
-15 5 28 18 20 30 -22 30 -22 0 -46 3 -54 6 -14 5 -13 8 1 23 9 9 20 13 23 8
3 -5 9 -2 11 5 4 9 -3 14 -21 16 -14 1 -39 7 -54 13 -25 11 -26 13 -12 29 16
18 20 35 6 26 -14 -9 -41 4 -41 20 0 10 13 14 40 14 41 0 87 18 126 49 11 9 5
1 -15 -16 -19 -18 -30 -33 -25 -33 6 0 28 19 49 41 22 23 35 39 28 35 -6 -3
-13 -1 -15 5 -7 22 -52 18 -60 -5 -5 -19 -6 -18 -7 5 -1 36 -37 59 -72 47 -16
-5 -35 -5 -50 2 l-24 10 25 -4 c14 -2 34 -1 44 3 19 7 19 8 -2 13 -12 4 -20 3
-17 -1 2 -5 -8 -6 -23 -3 -22 5 -24 7 -7 10 11 2 28 11 39 21 10 9 20 15 23
13 3 -2 6 -2 8 0 2 2 -7 5 -21 6 -40 3 -64 21 -64 47 0 17 6 25 18 25 14 0 15
-2 2 -10 -19 -12 -2 -44 26 -47 15 -2 14 -1 -3 7 -24 10 -29 21 -15 34 4 4 7
13 7 19 0 7 5 12 12 12 6 0 15 4 20 9 5 5 3 6 -4 2 -7 -4 -13 -2 -13 3 0 6 -8
11 -17 11 -9 0 -13 3 -9 8 4 4 13 7 19 7 7 0 12 7 12 15 0 11 -9 14 -32 12
-31 -3 -33 -2 -33 30 0 50 -12 108 -21 108 -5 0 -9 -36 -9 -79 0 -59 -4 -84
-16 -95 -22 -22 -31 -20 -10 3 13 15 16 34 13 92 l-3 74 -2 -73 c-1 -55 -7
-80 -21 -98 -10 -13 -22 -20 -27 -16 -5 4 1 -5 14 -19 26 -30 28 -56 5 -62
-14 -4 -13 -5 4 -6 27 -1 36 38 13 56 -16 14 -2 17 17 5 8 -5 10 -17 5 -37 -6
-23 -15 -31 -35 -33 -15 -2 -27 -8 -27 -13 0 -6 -6 -7 -12 -3 -9 5 -9 2 1 -9
15 -19 26 -23 16 -6 -4 6 2 5 14 -3 31 -19 20 -32 -30 -38 -37 -4 -44 -9 -45
-27 -1 -14 5 -23 14 -23 12 0 12 3 2 15 -22 26 -5 26 20 0 l23 -25 -36 0 c-25
0 -36 5 -39 17 -4 20 -48 26 -48 6 0 -11 5 -11 23 -3 21 11 21 10 3 -4 -30
-24 -41 -19 -40 18 l2 34 -52 -24 c-59 -27 -114 -31 -156 -9 -17 9 -30 13 -30
11 0 -3 13 -12 30 -21 40 -21 96 -19 149 5 24 11 46 19 48 17 2 -3 -20 -14
-49 -27 -87 -37 -172 -17 -208 51 -7 13 -4 15 19 11 16 -2 44 5 67 17 21 12
45 21 52 21 18 0 92 39 92 48 0 16 -23 30 -39 24 -13 -5 -11 -8 9 -13 21 -6
18 -7 -15 -8 l-40 -1 37 25 c20 14 48 44 62 67 14 24 26 39 26 35 0 -13 -21
-50 -44 -77 l-21 -25 24 20 c28 24 54 72 46 85 -4 6 -20 4 -42 -5 -19 -8 -56
-15 -80 -15 -44 0 -45 0 -24 18 25 20 54 89 42 96 -5 3 -23 1 -41 -5 -24 -9
-37 -9 -55 1 -13 7 -29 10 -37 8 -7 -3 4 -10 25 -17 28 -10 46 -10 69 -2 17 6
33 9 36 7 2 -3 -15 -10 -37 -17 -36 -11 -47 -10 -76 4 -38 18 -49 49 -15 40
11 -3 32 2 46 12 14 9 28 14 31 12 3 -3 -8 -12 -24 -21 -15 -8 -23 -15 -16
-16 7 0 24 11 40 24 22 19 25 26 15 38 -10 12 -4 20 33 47 25 18 50 41 56 53
8 15 8 19 0 14 -6 -4 -11 -3 -11 2 0 5 -18 5 -45 -1 -27 -6 -55 -7 -73 -1
l-29 9 28 23 c24 20 28 21 22 5 -7 -19 -5 -18 17 11 13 17 13 18 1 11 -10 -6
-13 -4 -9 6 4 11 -3 13 -34 11 -27 -3 -45 1 -59 13 -19 18 -19 18 3 29 33 17
36 46 5 46 -31 0 -46 18 -54 64 -5 33 -4 36 18 35 19 -1 20 -2 5 -6 -14 -4
-17 -11 -12 -36 7 -35 21 -47 51 -45 17 1 16 1 -3 5 -30 6 -52 51 -31 63 8 5
14 15 14 22 0 7 5 13 12 13 6 0 14 3 17 8 3 4 3 5 0 3 -3 -3 -17 8 -30 23 -20
24 -24 41 -27 122 l-3 94 -2 -102 c-2 -95 0 -103 19 -113 11 -7 18 -14 15 -17
-3 -4 -15 2 -26 12 -18 16 -20 31 -20 122 0 79 -3 104 -12 101 -7 -3 -14 -24
-15 -49 -2 -24 -5 -63 -9 -86 -5 -39 -8 -43 -32 -42 -23 2 -24 2 -5 6 17 3 23
14 28 46 4 24 5 58 2 77 -3 28 -4 26 -6 -15 -2 -69 -10 -92 -32 -98 -26 -7
-24 -32 3 -51 l22 -16 -27 0 c-15 0 -27 -5 -27 -11 0 -5 -5 -7 -11 -3 -8 4 -8
0 0 -15 14 -25 23 -28 14 -3 -6 15 -5 15 10 3 9 -7 15 -17 12 -21 -3 -5 -1
-11 5 -15 18 -11 10 -34 -17 -49 -16 -8 -23 -15 -18 -16 37 -1 73 61 43 73 -8
3 -6 6 5 6 12 1 17 -7 17 -28 0 -34 -19 -52 -60 -56 -17 -1 -33 -5 -37 -9 -7
-7 36 -56 50 -56 5 0 -2 9 -17 21 -14 11 -26 24 -26 29 0 5 11 -2 25 -15 13
-14 33 -25 45 -25 21 0 28 -24 9 -36 -11 -6 -74 -8 -98 -2 -8 2 -15 -3 -17
-10 -1 -7 0 -8 3 -2 3 7 11 3 20 -10 8 -12 25 -25 37 -30 19 -8 18 -9 -9 -9
-16 -1 -43 6 -59 14 -40 21 -49 19 -44 -10 4 -19 1 -25 -11 -25 -27 0 -47 22
-65 72 -10 26 -22 51 -28 54 -14 9 -28 -15 -28 -50 0 -16 -5 -46 -12 -67 -9
-33 -9 -42 5 -57 16 -17 15 -18 -16 -14 -22 2 -38 -2 -46 -12 -11 -14 -11 -16
3 -16 10 0 14 5 11 10 -12 19 1 10 31 -21 l29 -31 -33 16 c-58 30 -68 17 -28
-36 20 -26 36 -49 36 -52 0 -3 -16 2 -35 10 -19 7 -39 14 -45 14 -16 0 -12
-25 10 -53 11 -14 20 -27 20 -30 0 -3 -18 -3 -40 0 -36 5 -40 3 -40 -16 0 -16
10 -26 35 -37 23 -9 41 -27 55 -54 11 -21 20 -42 20 -45 0 -14 -23 -2 -59 30
-41 37 -55 42 -67 23 -4 -6 -3 -8 4 -5 11 8 72 -68 72 -90 0 -9 -9 -9 -41 2
-23 8 -45 15 -50 15 -16 0 -9 -29 27 -116 19 -47 33 -88 31 -91 -7 -6 -61 23
-76 41 -16 19 -51 21 -51 4 0 -22 57 -114 92 -149 23 -23 33 -42 33 -63 0 -26
4 -31 23 -30 12 0 22 -4 22 -9 0 -5 -19 -7 -45 -5 -34 4 -45 2 -45 -8 0 -20
-28 -17 -62 7 -17 12 -44 25 -62 29 -28 7 -28 8 -6 9 14 1 42 -10 62 -24 20
-14 43 -25 50 -25 7 0 1 7 -14 14 -15 8 -38 22 -50 30 -29 21 -62 20 -79 -1
-12 -14 -12 -15 0 -9 10 7 12 3 6 -13 -4 -13 -1 -28 6 -37 6 -8 9 -17 6 -20
-3 -4 -14 11 -24 32 -17 36 -21 39 -66 42 -40 3 -46 6 -37 17 6 8 10 24 7 37
-4 21 -4 20 -6 -4 0 -15 -6 -30 -11 -33 -20 -13 2 -25 45 -25 49 0 63 -13 43
-37 -7 -9 -8 -14 -2 -10 6 3 31 -13 56 -36 39 -37 148 -106 148 -94 0 3 -32
24 -71 47 -39 23 -68 44 -65 48 3 3 14 -2 23 -10 10 -8 46 -32 81 -52 68 -41
74 -59 24 -64 -38 -4 -39 -8 -9 -33 12 -10 19 -18 15 -19 -4 0 -35 25 -70 55
-65 58 -102 75 -120 57 -13 -13 -4 -65 18 -107 14 -27 14 -30 -2 -42 -25 -18
-55 -17 -48 2 7 18 -17 20 -34 3 -9 -9 -12 -6 -12 15 0 14 -7 30 -16 35 -14 8
-11 15 21 51 21 23 35 44 31 48 -3 3 -6 0 -6 -8 0 -11 -2 -11 -8 -1 -6 9 -26
4 -81 -20 -54 -24 -76 -30 -88 -22 -29 18 -24 29 18 44 50 18 72 45 49 60 -12
8 -10 10 9 10 28 0 141 49 141 61 0 5 -19 9 -42 9 -55 0 -73 11 -60 36 19 36
19 78 0 82 -10 2 -18 -1 -18 -7 0 -6 8 -8 18 -5 14 5 15 4 2 -5 -27 -19 -42
-14 -29 10 9 19 8 20 -10 15 -12 -3 -30 -9 -41 -12 -11 -3 -28 -1 -37 5 -14 8
-9 10 25 11 51 0 75 11 120 54 21 20 31 25 26 13 -3 -10 -23 -29 -43 -42 -19
-14 -31 -25 -26 -25 18 0 53 29 76 62 13 17 17 28 9 23 -10 -6 -12 -4 -7 9 6
15 4 17 -10 10 -10 -4 -54 -9 -98 -12 -72 -4 -78 -3 -66 12 7 9 26 16 42 16
19 0 29 5 29 15 0 11 11 15 38 15 46 0 56 8 39 28 -6 9 -7 13 -1 9 13 -8 84
13 84 25 0 5 5 6 12 2 7 -4 8 -3 4 5 -4 6 -12 9 -17 5 -10 -6 -59 21 -59 34 0
4 17 7 38 7 20 1 46 4 57 9 12 4 10 1 -5 -8 -14 -8 -36 -16 -50 -16 -21 -1
-23 -2 -8 -10 12 -8 26 -5 50 10 18 11 33 23 33 27 0 5 4 14 8 21 6 8 0 12
-20 12 -24 1 -25 2 -10 11 9 5 22 7 27 4 10 -6 50 51 50 70 -1 6 -10 -7 -21
-27 -11 -21 -22 -38 -24 -38 -3 0 1 13 10 30 22 42 19 53 -9 34 -14 -8 -33
-14 -43 -12 -17 3 -17 6 -5 28 13 23 13 23 9 3 -3 -15 0 -23 9 -23 12 0 11 16
-3 42 -2 4 -32 -7 -68 -23 -117 -53 -219 -35 -267 46 l-17 30 38 -3 c21 -2 49
1 62 8 23 11 23 10 5 -4 -11 -9 -35 -16 -54 -16 -18 0 -31 -4 -28 -9 8 -12 73
4 95 23 10 9 27 16 40 16 26 0 126 49 117 57 -3 4 0 13 6 21 11 13 8 14 -19 8
-18 -4 -42 -4 -54 -1 -20 7 -18 9 17 29 22 12 54 43 72 70 17 26 32 44 32 38
0 -6 -16 -32 -36 -59 -24 -31 -28 -40 -12 -25 13 12 34 40 46 61 l22 39 -27
-3 c-16 -2 -53 -9 -84 -16 -31 -7 -64 -9 -75 -5 -18 7 -18 8 2 24 30 23 45 56
42 91 -2 25 -5 28 -19 20 -24 -12 -106 -12 -114 1 -3 6 3 10 15 10 11 0 37 16
58 36 20 20 31 33 25 29 -7 -3 -13 -2 -13 4 0 6 -12 8 -27 5 -31 -6 -83 10
-83 26 0 5 12 10 26 10 49 0 105 23 152 64 39 33 42 34 17 7 -41 -44 -85 -70
-137 -80 -41 -8 -42 -8 -16 -16 22 -6 38 -1 75 23 65 42 114 94 104 110 -6 10
-14 10 -35 2 -37 -14 -104 -12 -141 4 l-30 12 32 7 c22 4 39 17 52 39 11 17
18 35 15 39 -2 4 -21 5 -42 3 -20 -3 -44 0 -52 5 -12 8 -10 15 14 40 16 17 28
32 25 34 -2 1 -18 -12 -36 -31 l-32 -32 25 -16 c17 -12 36 -15 62 -11 25 5 32
3 22 -3 -24 -16 -63 -11 -98 10 l-34 21 33 22 c42 28 48 47 16 47 -42 0 -77
36 -77 78 1 32 5 39 36 53 25 12 31 13 23 3 -6 -7 -19 -16 -30 -19 -28 -9 -26
-69 3 -89 12 -9 29 -16 38 -16 8 1 0 7 -17 15 -47 20 -45 57 5 102 20 19 31
32 25 28 -7 -3 -13 -1 -13 4 0 6 -10 11 -23 11 -35 0 -45 28 -52 158 -4 67
-11 120 -15 117 -4 -3 -11 -40 -14 -82 -12 -133 -13 -136 -52 -130 -40 7 -43
-5 -9 -38 l24 -25 -32 1 c-18 1 -24 3 -14 6 17 4 18 6 2 24 -26 27 -13 50 25
43 25 -5 30 -3 30 12 0 15 -2 16 -9 5 -5 -8 -16 -11 -28 -7 -28 9 -51 -19 -36
-44 7 -9 8 -21 3 -26 -16 -17 9 -54 40 -60 26 -6 30 -11 30 -39 0 -38 -37 -77
-74 -77 -15 0 -26 -4 -26 -8 0 -16 49 -50 73 -50 22 0 27 -5 27 -25 0 -30 -31
-40 -96 -31 -42 5 -44 5 -34 -15 6 -11 26 -29 43 -40 l32 -21 -49 6 c-27 3
-60 13 -72 21 -32 20 -34 19 -34 -15 0 -24 -4 -30 -22 -30 -13 0 -36 9 -53 20
-16 11 -25 20 -20 20 6 -1 19 -7 29 -15 28 -22 51 -19 53 6 3 34 18 43 44 26
13 -8 37 -18 53 -21 26 -6 28 -5 17 8 -7 8 -19 12 -27 9 -8 -3 -26 2 -40 12
-20 13 -28 14 -40 4 -8 -6 -14 -17 -14 -25 0 -23 -20 -26 -47 -9 -25 17 -27
17 -40 -1 -19 -26 -18 -28 33 -73 53 -46 136 -81 195 -81 24 0 38 -4 34 -10
-3 -6 -14 -10 -24 -10 -10 0 -24 -7 -31 -16 -11 -12 -10 -18 5 -32 18 -16 18
-16 6 0 -17 22 -8 34 29 41 49 10 39 37 -15 37 -58 0 -142 32 -185 71 l-35 31
38 -26 c20 -15 54 -34 75 -43 48 -20 160 -33 167 -19 3 6 2 0 -1 -14 -7 -29
-30 -50 -56 -50 -27 0 -22 -17 9 -33 l27 -15 -43 -21 c-27 -14 -56 -21 -79
-19 -43 3 -50 -11 -22 -43 l22 -24 -16 25 c-9 13 -16 29 -16 35 1 5 7 -2 15
-17 8 -15 25 -30 37 -34 20 -6 20 -8 -13 -25 -23 -13 -52 -18 -91 -17 -39 1
-61 -3 -72 -14 -14 -15 -14 -17 0 -22 24 -9 36 -7 29 4 -4 6 -11 8 -16 5 -5
-3 -6 1 -3 10 5 13 8 13 18 2 6 -8 20 -19 31 -25 17 -10 15 -11 -18 -12 -21 0
-47 5 -57 10 -34 18 -33 -8 2 -50 41 -50 124 -84 183 -77 37 5 39 5 20 -9 -18
-14 -19 -16 -3 -25 24 -13 12 -38 -14 -31 -17 4 -20 2 -16 -15 4 -15 -1 -24
-19 -32 -34 -16 -51 -14 -49 6 2 31 -36 25 -129 -20 -88 -43 -129 -58 -190
-72 -28 -6 -29 -6 -12 13 9 10 17 22 17 25 0 4 -31 7 -68 7 -43 0 -75 5 -88
14 -25 19 -19 22 44 28 31 3 48 2 40 -3 -7 -5 -8 -9 -2 -9 6 0 19 9 29 20 18
20 18 21 -10 50 l-29 30 71 73 c38 39 73 80 77 91 3 10 31 59 62 108 30 50 54
92 52 93 -5 5 -128 -199 -128 -211 0 -6 -32 -41 -70 -78 -39 -38 -70 -73 -70
-79 0 -5 8 -16 18 -24 15 -13 15 -13 -5 -3 -13 6 -23 18 -23 26 0 8 32 46 70
83 39 37 70 72 70 79 0 6 20 43 44 80 51 80 79 132 74 138 -2 2 -57 -24 -121
-56 -164 -84 -186 -80 -122 20 19 30 37 71 40 90 12 72 16 80 46 95 18 10 38
33 50 58 13 30 19 36 19 20 0 -19 -37 -65 -84 -101 -10 -8 -16 -27 -16 -50 0
-25 -12 -57 -35 -95 -19 -32 -32 -63 -29 -69 4 -7 2 -8 -4 -4 -7 4 -12 2 -12
-4 0 -8 9 -10 28 -5 29 7 232 113 232 121 0 3 -47 -20 -104 -50 -91 -49 -136
-66 -136 -52 0 3 16 31 35 63 21 35 35 71 35 91 0 27 10 43 51 83 36 35 49 55
47 72 -3 21 -7 22 -110 22 -72 0 -101 3 -90 9 9 6 53 10 97 9 74 -1 76 0 22 6
l-57 6 35 49 c41 58 42 66 12 102 l-23 26 -49 -42 c-47 -41 -82 -60 -111 -60
-25 0 -15 17 47 82 94 98 119 128 119 141 0 7 -6 3 -12 -8 -6 -11 -49 -59 -95
-107 -45 -48 -83 -96 -83 -107 0 -17 4 -18 39 -9 22 6 63 30 91 54 29 24 57
41 63 37 6 -4 0 -10 -14 -15 -13 -5 -38 -22 -54 -38 -17 -16 -57 -39 -89 -50
-69 -23 -74 -24 -58 -8 7 7 12 20 12 30 0 10 41 61 90 112 50 52 90 99 90 104
0 24 -67 18 -155 -14 -15 -5 -12 1 12 27 30 32 63 103 63 135 0 22 -29 16 -88
-17 -63 -36 -63 -32 7 75 28 43 51 82 51 87 0 19 -55 7 -102 -21 -54 -33 -59
-35 -55 -19 1 6 -4 14 -12 17 -10 3 -12 0 -7 -14 6 -15 5 -16 -5 -7 -18 18 2
37 51 52 27 8 48 23 62 44 11 18 17 23 13 12 -3 -11 -7 -24 -8 -30 -1 -5 -20
-17 -41 -26 -23 -9 -34 -19 -28 -23 6 -4 23 1 37 10 14 9 40 20 58 24 31 8 31
8 4 9 -25 1 -27 3 -17 21 17 32 4 39 -61 36 l-60 -3 24 26 c56 63 57 82 5 100
-26 9 -29 13 -18 26 16 19 8 83 -20 159 -22 59 -50 76 -50 31 0 -14 -5 -25
-11 -25 -8 0 -9 -14 -5 -44 8 -51 -7 -94 -49 -144 -28 -33 -28 -34 -11 -65
l18 -32 -21 25 c-11 14 -21 28 -21 32 0 4 15 28 34 52 38 50 50 97 36 141 -10
30 -10 30 -5 -5 7 -48 -9 -96 -46 -143 -27 -33 -30 -43 -21 -58 16 -26 15 -29
-11 -29 -13 0 -28 -5 -35 -12 -9 -9 -12 -7 -12 8 0 12 -9 29 -20 39 -20 18
-22 17 -74 -19 -52 -36 -156 -82 -156 -70 0 3 16 34 35 68 20 36 35 77 35 96
0 26 10 41 50 79 53 50 62 77 33 104 -18 16 -127 27 -140 14 -3 -4 23 -7 60
-7 36 0 68 -3 70 -7 3 -5 -38 -9 -91 -9 -84 -1 -93 0 -77 12 10 8 22 14 25 14
15 0 70 90 70 114 0 32 -23 34 -65 5 -82 -55 -165 -85 -165 -58 0 5 42 54 93
107 52 53 97 106 101 116 3 10 9 16 13 13 10 -10 -21 -50 -98 -125 -40 -40
-70 -74 -67 -77 6 -6 138 131 164 170 16 24 16 27 -2 46 -14 16 -28 19 -64 17
-25 -2 -54 -10 -65 -17 l-20 -13 20 7 c38 12 112 17 118 8 3 -5 -6 -8 -23 -5
-16 2 -52 -4 -80 -13 -28 -9 -53 -15 -56 -12 -3 2 8 15 23 28 29 24 81 134 70
146 -4 3 -28 -3 -54 -13 -71 -28 -69 -28 -58 -17 6 6 31 18 58 28 26 10 46 20
43 22 -2 2 -21 -3 -41 -11 -20 -9 -41 -14 -45 -11 -9 6 -42 -29 -35 -37 3 -3
-1 -8 -10 -11 -24 -10 -18 7 16 39 45 43 89 113 82 131 -4 11 -2 14 5 9 18
-11 15 -23 -18 -72 -17 -24 -29 -44 -26 -44 13 0 67 93 62 106 -3 8 -19 22
-36 32 -23 13 -29 22 -25 38 9 38 -71 78 -95 48 -9 -10 -3 -11 27 -7 53 7 71
-14 49 -57 -14 -30 -14 -31 4 -25 11 3 27 2 36 -3 12 -7 9 -9 -13 -9 -15 0
-52 -15 -81 -33 -44 -28 -55 -31 -63 -19 -14 23 -5 33 48 52 34 13 54 27 62
44 17 37 5 46 -52 39 l-50 -7 36 40 c20 23 37 46 37 53 0 6 3 8 6 5 4 -4 -1
-19 -10 -34 l-17 -28 21 24 c22 26 22 46 -1 46 -8 1 -13 6 -11 13 1 7 -4 15
-11 17 -8 4 -11 19 -9 45 4 37 -31 164 -47 174 -4 3 3 -25 16 -62 13 -38 22
-86 21 -110 -1 -28 3 -47 12 -54 12 -8 11 -9 -3 -4 -10 3 -24 6 -30 6 -8 0 -7
4 1 12 18 18 15 68 -10 144 -12 38 -22 75 -23 83 0 8 -7 16 -15 18 -12 4 -12
3 -2 -5z m438 -1116 c-3 -14 -26 -41 -51 -62 -38 -30 -45 -42 -45 -71 0 -23
-15 -62 -41 -109 -22 -41 -36 -74 -30 -74 26 0 117 42 167 76 62 43 78 38 89
-26 4 -21 13 -46 21 -57 13 -16 13 -15 3 9 -6 15 -9 34 -6 42 7 17 49 20 82 6
13 -6 3 -7 -27 -3 -43 5 -48 4 -48 -14 0 -30 33 -67 79 -88 31 -14 41 -24 41
-42 0 -12 -3 -23 -7 -23 -5 0 -39 21 -77 45 -49 32 -76 43 -90 39 -28 -9 -34
-16 -18 -21 46 -17 122 -124 122 -174 0 -8 17 -35 38 -60 36 -43 37 -44 7 -26
-16 10 -56 46 -88 80 -42 46 -59 59 -66 49 -8 -14 7 -104 27 -154 l11 -27 -59
31 c-33 17 -58 33 -56 36 3 2 25 -7 50 -21 26 -14 46 -24 46 -22 0 14 -14 34
-21 30 -5 -3 -22 1 -40 10 -29 15 -32 15 -50 -1 -20 -18 -25 -49 -10 -58 4 -3
6 5 4 18 -3 13 -1 26 5 30 5 3 7 -5 5 -18 -3 -13 0 -27 6 -30 15 -10 14 -29
-1 -20 -8 4 -10 3 -5 -2 5 -5 13 -9 18 -9 5 0 9 -4 9 -10 0 -13 -41 -14 -57
-2 -7 5 -43 6 -83 2 -50 -5 -75 -4 -85 5 -29 24 -21 28 109 44 31 4 29 19 -9
56 -19 19 -35 31 -35 26 0 -4 14 -19 30 -33 17 -13 30 -28 30 -33 0 -4 -16 8
-36 27 l-36 34 73 73 c121 119 219 309 154 298 -11 -2 -35 -15 -52 -28 -70
-53 -183 -92 -183 -63 0 6 18 41 40 78 27 46 40 79 40 104 0 25 7 43 20 55 65
55 80 73 80 93 0 12 3 20 6 16 4 -3 4 -17 0 -31z m2157 -1503 c57 -5 70 -16
45 -41 -7 -7 -20 -12 -30 -12 -25 0 -23 -19 3 -28 21 -8 21 -8 -3 -24 -14 -9
-39 -19 -56 -21 -30 -5 -31 -3 -26 19 9 35 -11 30 -35 -10 -18 -29 -39 -46
-57 -46 -14 0 1 32 36 75 51 64 54 89 8 64 -16 -9 -19 -8 -13 3 19 32 29 39
49 32 12 -4 47 -9 79 -11z m-3253 -33 c0 -5 31 -28 69 -50 63 -38 74 -41 115
-35 64 10 60 -10 -6 -30 -70 -21 -122 -19 -199 6 -35 12 -66 23 -68 25 -2 2 9
24 23 49 17 29 34 45 46 45 11 0 20 -4 20 -10z m2101 -347 c17 -17 -55 -36
-112 -31 -35 4 -49 2 -49 -8 0 -14 56 -64 73 -64 8 0 7 -4 -2 -9 -8 -5 -21 -7
-29 -4 -11 5 -13 1 -8 -14 10 -31 -24 -56 -59 -43 -26 10 -27 9 -22 -16 4 -23
-3 -31 -66 -72 -66 -42 -165 -88 -173 -79 -2 2 29 28 68 58 48 36 73 61 73 74
0 15 -6 19 -25 18 -94 -9 -109 -7 -129 11 -12 11 -21 28 -21 38 0 16 5 18 34
12 63 -11 160 36 260 127 l49 45 64 -16 c35 -9 68 -21 74 -27z m-1973 -29 c24
-16 72 -103 72 -129 0 -13 -4 -14 -21 -5 -17 10 -18 14 -8 27 18 21 -7 39 -65
47 -70 11 -94 -8 -59 -46 21 -24 12 -42 -43 -80 -42 -30 -172 -88 -139 -63 70
54 70 62 -1 82 -27 8 -56 21 -64 29 -13 13 -13 16 0 24 8 5 24 10 35 10 49 0
102 24 137 62 51 55 113 72 156 42z m3609 -134 c14 -11 41 -20 60 -20 20 0 32
-4 28 -10 -10 -16 -54 -11 -76 9 -19 18 -20 18 -50 -10 -17 -16 -41 -29 -53
-29 -19 -1 -19 -2 -3 -11 25 -15 21 -28 -15 -44 -18 -8 -26 -14 -18 -15 24 0
62 30 56 45 -3 8 11 25 30 40 28 22 38 24 49 15 17 -14 21 -35 5 -25 -18 11
-11 -1 12 -21 20 -17 21 -17 9 -1 -14 17 -13 17 13 6 27 -13 27 -13 5 -21 -12
-5 -31 -6 -43 -3 -17 5 -18 4 -6 -4 22 -15 56 -13 74 4 8 8 17 11 20 6 9 -15
-50 -33 -83 -26 -38 8 -41 -9 -10 -49 20 -26 20 -26 1 -26 -11 0 -28 3 -36 6
-15 6 -15 7 -1 18 13 9 14 16 5 36 l-10 25 5 -26 c4 -23 1 -27 -26 -33 -22 -4
-29 -10 -26 -21 9 -23 -22 -115 -38 -115 -23 0 -18 -13 17 -42 25 -21 29 -28
15 -28 -10 0 -20 7 -23 15 -4 8 -10 15 -15 15 -5 0 -9 -7 -9 -15 0 -16 -17
-19 -44 -9 -14 5 -14 8 -1 27 23 33 19 50 -9 43 -13 -3 -38 -1 -57 6 l-33 11
42 13 c57 16 89 38 107 74 14 28 14 31 -1 37 -9 3 -37 -1 -62 -10 l-47 -17 40
4 c22 2 49 7 60 10 11 4 7 0 -10 -8 -50 -25 -195 -14 -195 15 0 6 7 6 19 -1
34 -18 127 -8 115 12 -3 5 0 9 7 7 39 -5 61 2 55 16 -4 11 1 15 17 15 12 0 28
4 36 9 11 7 8 14 -15 34 l-29 25 26 -5 c29 -5 89 21 89 38 0 6 -7 8 -16 5 -14
-5 -15 -4 -4 9 16 19 17 19 47 -5z m1743 0 c28 0 60 4 70 10 13 7 26 5 47 -5
15 -8 41 -15 57 -15 24 0 27 -2 16 -15 -13 -16 -64 -16 -89 -1 -18 12 -148 21
-138 10 5 -5 39 -11 75 -14 64 -5 67 -6 65 -30 -1 -14 1 -19 3 -13 4 10 11 10
27 -2 12 -8 26 -15 32 -15 5 1 -2 8 -17 16 -16 8 -28 19 -28 25 0 6 7 3 16 -6
9 -9 30 -19 46 -22 16 -3 27 -11 25 -17 -6 -18 -73 -31 -99 -18 -20 10 -17 11
22 7 40 -4 41 -4 12 4 -18 5 -36 11 -39 15 -3 3 -12 1 -19 -5 -10 -8 -10 -15
2 -37 7 -14 10 -30 6 -34 -5 -5 -42 -11 -83 -14 -67 -6 -76 -4 -94 16 l-19 21
29 -8 c36 -9 69 -9 115 0 25 5 29 4 15 -2 -18 -9 -17 -10 7 -10 26 -1 27 1 16
24 -6 14 -18 25 -27 25 -12 1 -11 3 4 12 21 11 45 37 45 49 0 4 -24 7 -53 7
-55 -1 -103 17 -128 48 -13 16 -12 16 8 6 12 -7 45 -12 73 -12z m-495 -21 c16
-7 12 -8 -14 -4 -19 3 -40 0 -48 -6 -7 -7 -37 -18 -66 -25 -39 -9 -45 -13 -23
-13 16 -1 49 8 72 20 31 14 48 18 60 11 20 -11 56 -4 48 9 -3 5 0 9 5 9 19 0
12 -22 -9 -27 -26 -7 -25 -21 3 -33 16 -6 17 -9 5 -9 -9 -1 -24 9 -32 21 -9
12 -16 18 -16 12 0 -13 29 -40 50 -46 8 -3 21 2 28 11 11 14 11 14 6 -1 -4
-12 1 -19 20 -24 13 -3 30 -3 37 2 8 4 9 3 5 -4 -9 -16 36 -26 87 -19 l42 5
-30 -14 c-41 -18 -134 -17 -165 2 -17 11 -19 13 -5 9 30 -10 91 -19 85 -12 -3
3 -24 12 -47 20 -33 11 -45 12 -52 3 -17 -20 25 -75 72 -96 23 -11 36 -20 29
-20 -24 0 -70 29 -97 62 -15 18 -23 26 -18 16 4 -9 23 -32 41 -52 34 -38 65
-45 105 -25 22 10 22 10 2 -6 -14 -12 -32 -15 -59 -12 -35 5 -38 4 -33 -16 2
-12 8 -29 11 -38 5 -12 0 -18 -23 -22 -17 -4 -38 -4 -46 -1 -8 4 -15 1 -15 -5
0 -16 56 -42 109 -51 39 -7 41 -8 13 -9 -18 0 -49 6 -69 14 -50 21 -52 12 -3
-10 23 -10 46 -26 51 -34 9 -14 10 -13 5 2 -5 17 -3 16 20 -2 15 -12 38 -21
51 -21 31 0 26 -24 -6 -28 -23 -4 -24 -11 -6 -54 6 -15 1 -18 -32 -18 -21 0
-44 5 -50 11 -14 14 -36 1 -29 -17 5 -14 -9 -18 -49 -14 -27 3 -31 8 -17 22
21 21 13 28 -30 28 -40 0 -108 30 -108 47 0 4 5 2 12 -5 20 -20 102 -15 129 8
l24 19 -30 1 c-39 0 -64 15 -41 23 26 10 18 25 -16 32 -18 4 -45 14 -60 23
-27 16 -27 16 -8 34 10 10 26 18 33 18 8 0 31 7 52 16 20 8 34 10 30 5 -3 -6
-27 -17 -53 -25 -26 -8 -39 -15 -30 -15 23 -1 70 17 90 36 13 12 15 20 7 29
-7 8 -7 14 1 19 21 13 9 24 -22 20 l-33 -5 30 10 c37 12 54 -2 35 -27 -13 -17
-13 -17 5 -1 15 14 16 19 5 33 -7 9 -19 14 -27 11 -7 -3 -13 -1 -13 3 0 5 -9
7 -19 4 -11 -3 -36 1 -57 7 -33 11 -35 14 -18 24 10 6 23 11 28 11 5 0 11 7
13 15 4 13 3 13 -6 0 -7 -10 -11 -11 -11 -2 0 6 -10 12 -22 12 -13 1 -34 7
-47 14 -19 11 -21 14 -7 19 23 9 20 25 -6 29 -13 2 -24 10 -26 18 -2 12 9 15
47 16 28 1 60 8 73 17 26 18 44 20 73 6z m-4916 -129 c-6 -24 -15 -50 -21 -57
-14 -17 -14 -17 50 -31 66 -15 114 -16 92 -3 -8 6 -18 7 -22 5 -5 -3 -32 0
-62 7 l-53 12 13 26 c8 14 14 35 14 45 0 19 1 19 20 1 12 -10 30 -34 41 -52
12 -19 24 -32 26 -29 3 3 -9 24 -28 48 -41 53 -53 75 -19 35 86 -103 102 -116
158 -132 68 -20 55 -35 -32 -35 -57 0 -58 1 -43 18 10 10 17 21 17 24 0 3 -28
8 -62 11 -35 3 -88 14 -118 24 -47 15 -51 18 -28 21 24 3 30 11 44 58 19 65
27 68 13 4z m1986 -155 c54 -36 63 -55 25 -55 -10 0 -20 -5 -22 -11 -5 -15
-43 -13 -116 7 -47 13 -66 14 -74 6 -9 -9 -7 -17 7 -32 16 -18 16 -20 1 -26
-34 -13 -170 19 -163 39 2 6 39 23 83 38 45 14 92 32 105 39 23 13 23 12 10
-6 -7 -10 -1 -5 15 13 36 38 55 37 129 -12z m2493 -212 c-5 -6 -16 -9 -24 -6
-10 3 -12 0 -8 -10 3 -8 16 -18 30 -21 13 -4 24 -11 24 -16 0 -6 12 -11 28
-11 l27 -1 -30 -9 c-21 -5 -6 -7 52 -6 44 1 76 -1 70 -5 -17 -11 -135 -10
-155 1 -13 7 -25 4 -42 -11 l-25 -20 25 14 c23 14 26 13 56 -19 17 -18 46 -36
64 -40 31 -6 32 -7 11 -15 -12 -4 -34 -5 -47 -2 -20 5 -23 3 -18 -12 4 -11 11
-24 16 -30 5 -8 1 -14 -14 -18 -38 -10 -48 -7 -41 10 5 14 1 16 -20 12 l-25
-5 29 53 c36 63 25 78 -30 40 -62 -43 -64 -37 -21 67 26 61 34 72 54 72 18 0
22 -3 14 -12z m1481 -64 c-11 -7 -10 -11 6 -23 11 -9 24 -16 28 -16 5 0 6 -4
3 -8 -9 -15 11 -34 37 -35 14 -1 23 -6 20 -10 -3 -5 -17 -6 -32 -3 l-26 6 24
-20 c27 -23 51 -26 71 -7 8 6 7 2 -3 -9 -18 -21 -17 -22 17 -28 22 -4 48 -1
69 8 33 13 34 13 29 -7 -5 -21 4 -21 50 -2 13 5 15 2 11 -14 -4 -16 -1 -21 15
-21 22 0 48 -25 34 -34 -5 -3 -23 -1 -40 3 -26 8 -30 7 -25 -7 4 -10 2 -14 -2
-9 -12 10 -45 -22 -45 -45 0 -23 -5 -23 -38 0 -15 10 -32 21 -37 25 -14 8 -18
-40 -5 -64 8 -14 7 -19 -2 -19 -19 1 -100 39 -120 57 -20 18 -24 4 -8 -27 9
-17 5 -21 -32 -30 -29 -8 -48 -9 -64 -1 l-23 10 34 52 c19 28 35 55 35 60 0 5
4 9 10 9 5 0 -6 -26 -25 -57 -38 -63 -34 -79 14 -68 37 8 46 19 31 42 -10 16
-10 15 -5 -4 5 -18 1 -22 -25 -28 -17 -4 -33 -5 -35 -3 -3 2 12 31 32 63 19
33 36 62 37 65 0 3 5 4 10 2 5 -2 3 5 -5 14 -12 16 -12 17 3 11 10 -3 22 1 30
11 9 11 10 14 1 8 -8 -4 -14 -2 -14 6 -1 7 -3 20 -4 28 -1 8 -3 25 -4 38 -1
19 -5 22 -28 17 l-28 -6 25 16 c14 9 18 14 9 11 -21 -6 -43 36 -27 52 6 6 15
9 21 5 5 -3 3 -9 -4 -14z m5517 -806 c4 3 13 -1 21 -9 9 -8 22 -13 29 -10 8 3
14 1 14 -5 0 -6 10 -9 22 -7 16 2 24 -3 26 -17 2 -11 11 -28 20 -38 25 -28 7
-31 -23 -3 -14 13 -40 29 -57 35 -30 11 -30 10 -23 -17 4 -15 8 -40 8 -57 1
-16 6 -34 12 -38 6 -5 4 -7 -5 -4 -10 3 -14 14 -12 31 2 14 -1 34 -7 43 -7 13
-9 7 -7 -24 2 -34 9 -49 44 -82 23 -23 45 -41 48 -41 4 0 -5 11 -20 25 -14 13
-26 30 -26 37 0 7 6 4 12 -7 24 -41 90 -84 131 -85 16 0 26 -4 22 -10 -3 -5
-21 -10 -39 -10 -44 0 -205 48 -231 68 -20 17 -23 52 -4 52 6 0 16 15 24 33 8
17 14 25 15 16 0 -9 -9 -28 -20 -42 -11 -14 -20 -30 -20 -36 0 -15 45 -36 131
-60 87 -24 104 -26 69 -7 -14 8 -28 12 -31 10 -13 -8 -159 44 -159 57 0 5 9
22 19 37 20 29 37 112 22 112 -4 0 -30 -17 -57 -39 -68 -53 -94 -66 -94 -46 0
32 39 84 58 77 6 -2 12 3 12 12 0 9 11 23 26 32 16 11 23 23 19 33 -3 11 -1
10 10 -3 8 -11 18 -17 21 -13z m-2885 -84 c33 -22 81 -48 107 -57 26 -8 42
-17 36 -19 -15 -5 -103 34 -141 63 l-31 24 -7 -28 c-3 -16 -24 -46 -45 -67
l-39 -39 32 -22 c22 -15 42 -20 60 -17 36 7 40 15 22 49 -8 16 -15 22 -15 14
0 -9 5 -21 12 -28 14 -14 11 -17 -22 -25 -16 -4 -34 0 -50 13 l-25 19 36 38
c20 21 39 46 43 57 5 14 9 16 20 7 7 -6 38 -25 67 -41 30 -16 46 -30 37 -30
-10 0 -18 -4 -18 -10 0 -5 8 -14 18 -19 9 -6 13 -10 7 -11 -5 0 -23 9 -40 20
-28 19 -65 27 -65 15 0 -18 34 -67 69 -98 l41 -37 -34 0 c-19 0 -47 5 -62 10
l-27 11 23 24 c26 28 21 30 -30 15 -30 -8 -39 -6 -72 15 -21 14 -38 28 -38 31
0 4 18 23 40 43 24 22 42 49 46 69 l7 34 -41 -21 c-47 -24 -73 -28 -54 -9 7 7
12 22 12 33 0 12 3 24 6 28 10 9 50 -10 115 -54z m-1398 -167 c6 2 32 -18 57
-45 l45 -50 -30 6 c-16 4 -41 10 -54 13 -16 5 -22 4 -18 -4 4 -5 4 -12 0 -15
-5 -2 -3 -3 3 -1 5 1 21 -5 35 -13 23 -14 22 -14 -18 -8 -49 6 -52 1 -23 -55
l20 -40 -22 1 c-13 0 -17 3 -10 6 6 2 12 9 12 14 0 6 -5 7 -12 3 -7 -4 -8 -3
-4 4 4 7 2 20 -4 29 -8 12 -10 13 -7 3 2 -8 0 -24 -5 -35 -6 -14 -7 -8 -4 23
2 23 1 40 -4 37 -4 -3 -12 13 -18 35 -8 31 -7 40 3 40 7 0 18 7 26 16 7 9 22
14 36 11 12 -2 20 0 17 4 -9 15 -51 10 -58 -6 -3 -8 -15 -15 -26 -15 -24 0
-24 6 -4 -59 8 -29 13 -55 10 -58 -4 -5 -13 23 -32 100 -5 24 -3 27 20 27 30
0 32 7 9 32 -15 17 -15 18 16 7 17 -6 37 -9 44 -7z"/>
<path d="M752 3307 c-19 -6 -39 -22 -47 -37 -8 -15 -29 -34 -47 -43 -30 -14
-47 -19 -116 -33 -33 -7 -20 -19 35 -34 61 -17 75 -28 67 -53 -6 -18 -1 -17
46 9 29 16 59 39 68 52 13 20 13 24 -3 42 -37 41 12 71 85 52 47 -12 51 -2 15
33 -26 27 -50 29 -103 12z m89 -7 c33 -18 22 -31 -21 -24 -29 5 -47 2 -65 -10
-29 -19 -31 -33 -10 -56 21 -23 12 -40 -37 -71 l-41 -27 -21 23 c-12 12 -41
28 -66 35 l-45 13 42 8 c60 11 112 38 131 67 27 42 93 63 133 42z"/>
<path d="M645 4262 c2 -18 37 -98 77 -178 85 -172 109 -194 256 -243 142 -47
144 -53 17 -45 -121 7 -162 13 -277 46 -66 18 -79 19 -93 8 -13 -10 -15 -24
-11 -51 6 -39 -9 -60 -53 -74 l-23 -7 26 44 c14 25 26 56 26 70 0 14 12 36 29
52 65 62 62 116 -5 116 -39 0 -40 2 -18 35 9 14 14 25 11 25 -2 0 -16 -17 -30
-38 l-25 -39 49 5 c38 3 50 1 55 -11 7 -20 -17 -66 -50 -94 -16 -14 -26 -33
-26 -49 0 -15 -14 -50 -30 -79 l-30 -53 35 11 c57 17 76 41 69 87 -9 52 7 58
93 32 127 -38 319 -61 384 -47 42 9 30 16 -109 61 -62 20 -123 47 -136 59 -13
12 -30 24 -38 27 -14 6 -143 256 -165 323 -12 36 -13 37 -8 7z"/>
</g>
</svg>
